<svg width="92" height="92" viewBox="0 0 92 92" fill="none" xmlns="http://www.w3.org/2000/svg">
<path d="M74.4576 6.92672L70.9818 7.80858L73.6158 18.1906L77.0917 17.3087L74.4576 6.92672Z" fill="#80EED3"/>
<path d="M73.6157 18.197L70.1626 19.0731L71.0387 22.5262L74.4918 21.6501L73.6157 18.197Z" fill="#80EED3"/>
<path d="M70.0993 4.33702L66.6462 5.21312L67.5281 8.68892L70.9811 7.81283L70.0993 4.33702Z" fill="#80EED3"/>
<path d="M73.6713 32.9006L70.2182 33.7767L74.6102 51.0876L78.0633 50.2115L73.6713 32.9006Z" fill="#80EED3"/>
<path d="M69.2866 15.6183L65.8336 16.4944L66.7097 19.9474L70.1627 19.0714L69.2866 15.6183Z" fill="#80EED3"/>
<path d="M79.8863 71.8756L76.4105 72.7574L77.2866 76.2105L80.7624 75.3286L79.8863 71.8756Z" fill="#80EED3"/>
<path d="M74.6128 51.091L71.137 51.9729L72.8949 58.9018L76.3707 58.0199L74.6128 51.091Z" fill="#80EED3"/>
<path d="M68.4685 26.8733L64.9926 27.7551L66.7448 34.6613L70.2206 33.7794L68.4685 26.8733Z" fill="#80EED3"/>
<path d="M64.9526 13.0154L61.4768 13.8973L62.3587 17.3731L65.8345 16.4912L64.9526 13.0154Z" fill="#80EED3"/>
<path d="M65.7701 1.75824L55.3881 4.39229L56.2642 7.84538L66.6462 5.21133L65.7701 1.75824Z" fill="#80EED3"/>
<path d="M75.5279 69.2859L72.0748 70.1619L72.9567 73.6377L76.4098 72.7617L75.5279 69.2859Z" fill="#80EED3"/>
<path d="M72.8923 58.8979L69.4392 59.774L70.3153 63.2271L73.7684 62.351L72.8923 58.8979Z" fill="#80EED3"/>
<path d="M68.5015 41.5918L65.0484 42.4679L65.9302 45.9437L69.3833 45.0676L68.5015 41.5918Z" fill="#80EED3"/>
<path d="M64.1084 24.2771L60.6553 25.1532L61.5372 28.629L64.9903 27.7529L64.1084 24.2771Z" fill="#80EED3"/>
<path d="M60.5986 10.443L57.1455 11.3191L58.0216 14.7721L61.4747 13.896L60.5986 10.443Z" fill="#80EED3"/>
<path d="M67.7224 67.5862L60.8162 69.3384L61.6923 72.7915L72.0743 70.1575L70.3163 63.2286L66.8405 64.1104L67.7224 67.5862Z" fill="#80EED3"/>
<path d="M59.7806 21.7072L56.3047 22.5891L57.1808 26.0422L60.6566 25.1603L59.7806 21.7072Z" fill="#80EED3"/>
<path d="M56.2641 7.84717L52.7883 8.72903L53.6702 12.2048L57.146 11.323L56.2641 7.84717Z" fill="#80EED3"/>
<path d="M65.0892 57.2097L61.6361 58.0858L62.5122 61.5389L65.9653 60.6628L65.0892 57.2097Z" fill="#80EED3"/>
<path d="M58.0621 29.5135L54.609 30.3895L55.4851 33.8426L58.9381 32.9665L58.0621 29.5135Z" fill="#80EED3"/>
<path d="M58.1197 44.2246L51.1908 45.9825L50.3147 42.5294L46.8616 43.4055L44.2275 33.0236L40.7744 33.8996L43.4085 44.2816L39.9327 45.1635L42.5667 55.5455L52.9487 52.9114L52.0726 49.4583L59.0015 47.7004L58.1197 44.2246Z" fill="#80EED3"/>
<path d="M55.4293 19.134L48.5231 20.8861L49.3992 24.3392L56.3054 22.587L55.4293 19.134Z" fill="#80EED3"/>
<path d="M61.6936 72.7958L44.3828 77.1878L45.2646 80.6636L62.5755 76.2716L61.6936 72.7958Z" fill="#80EED3"/>
<path d="M53.0057 67.6205L49.5526 68.4966L50.4345 71.9724L53.8876 71.0963L53.0057 67.6205Z" fill="#80EED3"/>
<path d="M42.4711 26.0989L39.018 26.975L39.8941 30.4281L43.3472 29.552L42.4711 26.0989Z" fill="#80EED3"/>
<path d="M47.6409 17.4077L30.33 21.7997L31.2118 25.2755L48.5227 20.8835L47.6409 17.4077Z" fill="#80EED3"/>
<path d="M36.5752 75.4887L35.6933 72.0129L32.2402 72.889L33.9982 79.8179L44.3802 77.1839L43.5041 73.7308L36.5752 75.4887Z" fill="#80EED3"/>
<path d="M31.2126 25.2781L24.2837 27.036L25.1598 30.4891L32.0887 28.7312L31.2126 25.2781Z" fill="#80EED3"/>
<path d="M37.3972 64.2356L33.9441 65.1117L34.8202 68.5648L38.2733 67.6887L37.3972 64.2356Z" fill="#80EED3"/>
<path d="M30.3702 36.5393L26.9171 37.4154L27.7932 40.8685L31.2463 39.9924L30.3702 36.5393Z" fill="#80EED3"/>
<path d="M25.1587 30.4913L21.7056 31.3674L22.5817 34.8205L26.0348 33.9444L25.1587 30.4913Z" fill="#80EED3"/>
<path d="M21.6421 16.6312L18.1891 17.5073L19.0709 20.9831L22.524 20.107L21.6421 16.6312Z" fill="#80EED3"/>
<path d="M34.0009 79.8219L30.5251 80.7037L31.407 84.1795L34.8828 83.2977L34.0009 79.8219Z" fill="#80EED3"/>
<path d="M31.3652 69.4339L27.8894 70.3158L28.7655 73.7688L32.2413 72.887L31.3652 69.4339Z" fill="#80EED3"/>
<path d="M26.9745 52.1278L23.4987 53.0097L24.3805 56.4855L27.8563 55.6036L26.9745 52.1278Z" fill="#80EED3"/>
<path d="M22.5815 34.813L19.1057 35.6949L19.9876 39.1707L23.4634 38.2888L22.5815 34.813Z" fill="#80EED3"/>
<path d="M19.0716 20.9789L15.5958 21.8608L16.4719 25.3139L19.9477 24.432L19.0716 20.9789Z" fill="#80EED3"/>
<path d="M31.4062 84.1756L27.9532 85.0517L28.8293 88.5048L32.2823 87.6287L31.4062 84.1756Z" fill="#80EED3"/>
<path d="M26.1329 63.3911L22.6798 64.2672L24.4378 71.196L27.8909 70.3199L26.1329 63.3911Z" fill="#80EED3"/>
<path d="M19.9885 39.1732L16.5354 40.0493L18.2876 46.9555L21.7407 46.0794L19.9885 39.1732Z" fill="#80EED3"/>
<path d="M16.4727 25.3155L13.0196 26.1916L13.9015 29.6674L17.3546 28.7913L16.4727 25.3155Z" fill="#80EED3"/>
<path d="M17.313 14.0525L6.93105 16.6866L7.80714 20.1397L18.1891 17.5056L17.313 14.0525Z" fill="#80EED3"/>
<path d="M18.2875 46.9523L14.8344 47.8283L19.2265 65.1392L22.6795 64.2631L18.2875 46.9523Z" fill="#80EED3"/>
<path d="M13.9027 29.6699L10.4496 30.546L11.3257 33.9991L14.7788 33.123L13.9027 29.6699Z" fill="#80EED3"/>
<path d="M11.3234 34.0015L7.8476 34.8834L8.7237 38.3364L12.1995 37.4546L11.3234 34.0015Z" fill="#80EED3"/>
<path d="M7.80687 20.1414L4.33106 21.0233L5.21292 24.4991L8.68873 23.6172L7.80687 20.1414Z" fill="#80EED3"/>
<path d="M5.21232 24.4952L1.75923 25.3713L4.39328 35.7533L7.84637 34.8772L5.21232 24.4952Z" fill="#80EED3"/>
</svg>
