<svg width="26" height="31" viewBox="0 0 26 31" fill="none" xmlns="http://www.w3.org/2000/svg">
<path d="M6.3941 26.9016V28.0984H7.40359V26.9016H6.3941Z" fill="#80EED3"/>
<path d="M9.42261 25.6968V26.9017H10.4321V25.6968H9.42261Z" fill="#80EED3"/>
<path d="M4.3833 24.5V25.6967H5.3928V24.5H4.3833Z" fill="#80EED3"/>
<path d="M8.41309 23.3032V24.5H9.42259V23.3032H8.41309Z" fill="#00B590"/>
<path d="M10.4321 22.0984V23.3033H11.4416V22.0984H10.4321Z" fill="#00B590"/>
<path d="M6.3941 22.0984V23.3033H7.40359V22.0984H6.3941Z" fill="#80EED3"/>
<path d="M14.4702 22.0984H15.4715V20.9016H14.4702V22.0984Z" fill="#00B590"/>
<path d="M18.4999 17.2952H7.40363V18.5001H18.4999V17.2952Z" fill="white"/>
<path d="M14.47 19.7009H11.4415V20.9058H14.47V19.7009Z" fill="white"/>
<path d="M4.38328 17.2951V16.0984H3.37378V17.2951H4.38328Z" fill="#80EED3"/>
<path d="M1.35474 16.0984V17.2951V18.5V19.6967V20.9016V22.0984V23.3032V24.5V25.6967V26.9016V28.0984V29.3032H2.36424V28.0984V26.9016V25.6967V24.5V23.3032V22.0984V20.9016V19.6967V18.5V17.2951V16.0984V14.9016H1.35474V16.0984Z" fill="#80EED3"/>
<path d="M19.5096 14.9017V13.6968H3.37378V14.9017H19.5096Z" fill="white"/>
<path d="M19.5096 16.0984V14.8936H4.3833V16.0984H19.5096Z" fill="white"/>
<path d="M19.5096 17.3033V16.0984H6.3941V17.3033H19.5096Z" fill="white"/>
<path d="M19.5096 12.5H3.37378V13.6967H19.5096V12.5Z" fill="white"/>
<path d="M19.5096 11.2952H3.37378V12.5H19.5096V11.2952Z" fill="white"/>
<path d="M19.5096 10.0984H3.37378V11.2951H19.5096V10.0984Z" fill="white"/>
<path d="M19.5096 8.90161H3.37378V10.0984H19.5096V8.90161Z" fill="white"/>
<path d="M19.5096 7.69678H3.37378V8.90167H19.5096V7.69678Z" fill="white"/>
<path d="M19.5096 6.5H3.37378V7.69674H19.5096V6.5Z" fill="white"/>
<path d="M22.5379 6.5H3.01605V5.90848H22.5379V6.5Z" fill="white"/>
<path d="M3.37379 14.8936H3.01605V5.90848H3.37379V14.8936Z" fill="white"/>
<path d="M10.4321 5.29513V4.09839H9.42261V5.29513H10.4321Z" fill="#00B590"/>
<path d="M20.519 5.9375H19.5095V7.69674V8.90163H20.519H21.5285V10.0984H20.519H19.5095V11.2951V12.5H20.519H21.5285V13.6967H20.519H19.5095V14.9016V16.0984H20.519H21.5285V14.9016H22.538V13.6967V12.5V11.2951V10.0984V8.90163V7.69674V5.9375H21.5285H20.519Z" fill="#C5C1C1"/>
<path d="M23.5474 16.0984H21.5284V17.2951V29.3032H24.5488V14.9016H23.5474V16.0984Z" fill="#00B590"/>
<path d="M14.4701 2.90161H13.4606H12.4511H11.4416V4.09835H10.4321V5.29509H11.4416H12.4511H13.4606H14.4701H15.4714V4.09835H14.4701V2.90161Z" fill="#00E3B5"/>
<path d="M11.4416 4.09835V2.90161H10.4321V4.09835H11.4416Z" fill="#00B590"/>
<path d="M12.4511 2.90167H13.4606V1.69678H12.4511V2.90167Z" fill="#00B590"/>
<path d="M12.451 2.90167V1.69678H11.4415V2.90167H12.451Z" fill="#00B590"/>
<path fill-rule="evenodd" clip-rule="evenodd" d="M20.519 17.2951H21.5285V29.3033H2.36432V16.0984H3.37381V17.2951H5.39281V18.5H7.40366V19.6968H9.42266V20.9016H11.4417V22.0984H10.4322V23.3033H8.41316V24.5H11.4417V23.3033H13.4606V22.0984H15.4715V20.9016H16.481V19.6968H18.5V18.5H20.519V17.2951ZM9.42266 25.6968V26.8935H10.4322V25.6968H9.42266ZM5.38467 25.6968V24.4919H4.37517V25.6968H5.38467ZM7.40366 23.2951V22.0984H6.39417V23.2951H7.40366ZM7.40366 28.0984V26.8935H6.39417V28.0984H7.40366Z" fill="#00E3B5"/>
<path d="M9.42261 23.3032V24.5H10.4321H11.4416V23.3032H10.4321H9.42261Z" fill="black"/>
<path d="M12.451 20.9016H11.4415V22.0984V23.3032H12.451H13.4605V22.0984H14.47V20.9016H13.4605H12.451Z" fill="black"/>
<path d="M16.481 18.5H15.4715H14.4701H13.4606H12.4511H11.4416H10.4321H9.42263H8.41313H7.40363V19.6967H8.41313H9.42263V20.9016H10.4321H11.4416V19.6967H12.4511H13.4606H14.4701V20.9016H15.4715H16.481V19.6967H17.4905H18.5V18.5H17.4905H16.481Z" fill="black"/>
<path d="M19.5095 16.0984V17.2951H18.5V18.5H19.5095H20.519V17.2951H21.5285V16.0984H20.519H19.5095Z" fill="black"/>
<path d="M5.3928 17.2951V18.5H6.39416H7.40365V17.2951H6.39416V16.0984H5.3928H4.3833V17.2951H5.3928Z" fill="black"/>
<path fill-rule="evenodd" clip-rule="evenodd" d="M24.5488 13.6968H25.5583V30.5H0.345276V13.6968H1.35478V12.5H2.36428V5.29513H8.41312V4.09839H9.42262V5.29513H15.4715V4.09839H16.481V5.29513H23.5474V12.5H24.5488V13.6968ZM24.5488 14.8935H23.5474V16.0984H21.5284V14.8935H22.5379V5.92938H2.99877V14.8935H4.38327V16.0984H2.36428V14.8935H1.35478V29.2951H24.5488V14.8935Z" fill="black"/>
<path d="M7.40361 13.6967H8.41311H9.42261H10.4321H11.4416H12.4511H13.4606H14.4701H15.4715H16.481H17.4905H18.5H19.5095H20.519H21.5284V12.5H20.519H19.5095H18.5H17.4905H16.481H15.4715H14.4701H13.4606H12.4511H11.4416H10.4321H9.42261H8.41311H7.40361H6.39412H5.39276V13.6967H6.39412H7.40361Z" fill="black"/>
<path d="M7.40361 10.0984H8.41311H9.42261H10.4321H11.4416H12.4511H13.4606H14.4701H15.4715H16.481H17.4905H18.5H19.5095H20.519H21.5284V8.90161H20.519H19.5095H18.5H17.4905H16.481H15.4715H14.4701H13.4606H12.4511H11.4416H10.4321H9.42261H8.41311H7.40361H6.39412H5.39276V10.0984H6.39412H7.40361Z" fill="black"/>
<path d="M15.4715 4.09835V2.90161H14.4702V4.09835H15.4715Z" fill="black"/>
<path d="M10.4321 2.90161H9.42261V4.09835H10.4321V2.90161Z" fill="black"/>
<path d="M14.4701 2.90167V1.69678H13.4606V2.90167H14.4701Z" fill="black"/>
<path d="M11.4416 1.69678H10.4321V2.90167H11.4416V1.69678Z" fill="black"/>
<path d="M13.4605 1.69674V0.5H12.451H11.4415V1.69674H12.451H13.4605Z" fill="black"/>
</svg>
