<svg width="150" height="142" viewBox="0 0 150 142" fill="none" xmlns="http://www.w3.org/2000/svg">
<path d="M75.1667 4.1899H71.4657V0.443726H75.1667V4.1899Z" fill="#21201E"/>
<path d="M71.466 7.89124H67.765V4.19025H71.466V7.89124Z" fill="#21201E"/>
<path d="M75.1667 7.89124H71.4657V4.19025H75.1667V7.89124Z" fill="#21201E"/>
<path d="M71.466 11.5915H67.765V7.8905H71.466V11.5915Z" fill="#21201E"/>
<path d="M75.1667 11.5915H71.4657V7.8905H75.1667V11.5915Z" fill="#F9C62C"/>
<path d="M71.466 15.3378H67.765V11.5917H71.466V15.3378Z" fill="#21201E"/>
<path d="M75.1667 15.3378H71.4657V11.5917H75.1667V15.3378Z" fill="#F9C62C"/>
<path d="M67.765 19.0392H64.0189V15.3382H67.765V19.0392Z" fill="#21201E"/>
<path d="M71.466 19.0392H67.765V15.3382H71.466V19.0392Z" fill="#21201E"/>
<path d="M75.1667 19.0392H71.4657V15.3382H75.1667V19.0392Z" fill="#F9C62C"/>
<path d="M67.765 22.7404H64.0189V19.0394H67.765V22.7404Z" fill="#21201E"/>
<path d="M71.466 22.7404H67.765V19.0394H71.466V22.7404Z" fill="#F9C62C"/>
<path d="M75.1667 22.7404H71.4657V19.0394H75.1667V22.7404Z" fill="#F9C62C"/>
<path d="M67.765 26.4406H64.0189V22.7396H67.765V26.4406Z" fill="#21201E"/>
<path d="M71.466 26.4406H67.765V22.7396H71.466V26.4406Z" fill="#F9C62C"/>
<path d="M75.1667 26.4406H71.4657V22.7396H75.1667V26.4406Z" fill="#F9C62C"/>
<path d="M64.0187 30.1879H60.3177V26.4417H64.0187V30.1879Z" fill="#21201E"/>
<path d="M67.765 30.1879H64.0189V26.4417H67.765V30.1879Z" fill="#21201E"/>
<path d="M71.466 30.1879H67.765V26.4417H71.466V30.1879Z" fill="#F9C62C"/>
<path d="M75.1667 30.1879H71.4657V26.4417H75.1667V30.1879Z" fill="#F9C62C"/>
<path d="M64.0187 33.8883H60.3177V30.1873H64.0187V33.8883Z" fill="#21201E"/>
<path d="M67.765 33.8883H64.0189V30.1873H67.765V33.8883Z" fill="#F9C62C"/>
<path d="M71.466 33.8883H67.765V30.1873H71.466V33.8883Z" fill="#F9C62C"/>
<path d="M75.1667 33.8883H71.4657V30.1873H75.1667V33.8883Z" fill="#F9C62C"/>
<path d="M64.0187 37.5895H60.3177V33.8885H64.0187V37.5895Z" fill="#21201E"/>
<path d="M67.765 37.5895H64.0189V33.8885H67.765V37.5895Z" fill="#F9C62C"/>
<path d="M71.466 37.5895H67.765V33.8885H71.466V37.5895Z" fill="#F9C62C"/>
<path d="M75.1667 37.5895H71.4657V33.8885H75.1667V37.5895Z" fill="#F9C62C"/>
<path d="M60.318 41.3358H56.617V37.5897H60.318V41.3358Z" fill="#21201E"/>
<path d="M64.0187 41.3358H60.3177V37.5897H64.0187V41.3358Z" fill="#21201E"/>
<path d="M67.765 41.3358H64.0189V37.5897H67.765V41.3358Z" fill="#F9C62C"/>
<path d="M71.466 41.3358H67.765V37.5897H71.466V41.3358Z" fill="#F9C62C"/>
<path d="M75.1667 41.3358H71.4657V37.5897H75.1667V41.3358Z" fill="#F9C62C"/>
<path d="M60.318 45.0363H56.617V41.3353H60.318V45.0363Z" fill="#21201E"/>
<path d="M64.0187 45.0363H60.3177V41.3353H64.0187V45.0363Z" fill="#F9C62C"/>
<path d="M67.765 45.0363H64.0189V41.3353H67.765V45.0363Z" fill="#F9C62C"/>
<path d="M71.466 45.0363H67.765V41.3353H71.466V45.0363Z" fill="#F9C62C"/>
<path d="M75.1667 45.0363H71.4657V41.3353H75.1667V45.0363Z" fill="#FFFAD7"/>
<path d="M60.318 48.7374H56.617V45.0364H60.318V48.7374Z" fill="#21201E"/>
<path d="M64.0187 48.7374H60.3177V45.0364H64.0187V48.7374Z" fill="#F9C62C"/>
<path d="M67.765 48.7374H64.0189V45.0364H67.765V48.7374Z" fill="#F9C62C"/>
<path d="M71.466 48.7374H67.765V45.0364H71.466V48.7374Z" fill="#F9C62C"/>
<path d="M75.1667 48.7374H71.4657V45.0364H75.1667V48.7374Z" fill="#FFFAD7"/>
<path d="M60.318 52.4838H56.617V48.7376H60.318V52.4838Z" fill="#21201E"/>
<path d="M64.0187 52.4838H60.3177V48.7376H64.0187V52.4838Z" fill="#F9C62C"/>
<path d="M67.765 52.4838H64.0189V48.7376H67.765V52.4838Z" fill="#F9C62C"/>
<path d="M71.466 52.4838H67.765V48.7376H71.466V52.4838Z" fill="#F9C62C"/>
<path d="M75.1667 52.4838H71.4657V48.7376H75.1667V52.4838Z" fill="#FFFAD7"/>
<path d="M4.57693 56.1842H0.875916V52.4832H4.57693V56.1842Z" fill="#21201E"/>
<path d="M8.2781 56.1842H4.57709V52.4832H8.2781V56.1842Z" fill="#21201E"/>
<path d="M12.024 56.1842H8.2778V52.4832H12.024V56.1842Z" fill="#21201E"/>
<path d="M15.7249 56.1842H12.0239V52.4832H15.7249V56.1842Z" fill="#21201E"/>
<path d="M19.426 56.1842H15.725V52.4832H19.426V56.1842Z" fill="#21201E"/>
<path d="M23.1724 56.1842H19.4262V52.4832H23.1724V56.1842Z" fill="#21201E"/>
<path d="M26.8733 56.1842H23.1723V52.4832H26.8733V56.1842Z" fill="#21201E"/>
<path d="M30.574 56.1842H26.873V52.4832H30.574V56.1842Z" fill="#21201E"/>
<path d="M34.3203 56.1842H30.5742V52.4832H34.3203V56.1842Z" fill="#21201E"/>
<path d="M38.0212 56.1842H34.3202V52.4832H38.0212V56.1842Z" fill="#21201E"/>
<path d="M41.7224 56.1842H38.0214V52.4832H41.7224V56.1842Z" fill="#21201E"/>
<path d="M45.4687 56.1842H41.7225V52.4832H45.4687V56.1842Z" fill="#21201E"/>
<path d="M49.1696 56.1842H45.4686V52.4832H49.1696V56.1842Z" fill="#21201E"/>
<path d="M52.8708 56.1842H49.1698V52.4832H52.8708V56.1842Z" fill="#21201E"/>
<path d="M56.6166 56.1842H52.8705V52.4832H56.6166V56.1842Z" fill="#21201E"/>
<path d="M60.318 56.1842H56.617V52.4832H60.318V56.1842Z" fill="#21201E"/>
<path d="M64.0187 56.1842H60.3177V52.4832H64.0187V56.1842Z" fill="#F9C62C"/>
<path d="M67.765 56.1842H64.0189V52.4832H67.765V56.1842Z" fill="#F9C62C"/>
<path d="M71.466 56.1842H67.765V52.4832H71.466V56.1842Z" fill="#FFFAD7"/>
<path d="M75.1667 56.1842H71.4657V52.4832H75.1667V56.1842Z" fill="#FFFAD7"/>
<path d="M4.57693 59.8854H0.875916V56.1844H4.57693V59.8854Z" fill="#21201E"/>
<path d="M8.2781 59.8854H4.57709V56.1844H8.2781V59.8854Z" fill="#21201E"/>
<path d="M12.024 59.8854H8.2778V56.1844H12.024V59.8854Z" fill="#F4EBA7"/>
<path d="M15.7249 59.8854H12.0239V56.1844H15.7249V59.8854Z" fill="#F4EBA7"/>
<path d="M19.426 59.8854H15.725V56.1844H19.426V59.8854Z" fill="#F4EBA7"/>
<path d="M23.1724 59.8854H19.4262V56.1844H23.1724V59.8854Z" fill="#F4EBA7"/>
<path d="M26.8733 59.8854H23.1723V56.1844H26.8733V59.8854Z" fill="#F4EBA7"/>
<path d="M30.574 59.8854H26.873V56.1844H30.574V59.8854Z" fill="#F4EBA7"/>
<path d="M34.3203 59.8854H30.5742V56.1844H34.3203V59.8854Z" fill="#F4EBA7"/>
<path d="M38.0212 59.8854H34.3202V56.1844H38.0212V59.8854Z" fill="#F4EBA7"/>
<path d="M41.7224 59.8854H38.0214V56.1844H41.7224V59.8854Z" fill="#F4EBA7"/>
<path d="M45.4687 59.8854H41.7225V56.1844H45.4687V59.8854Z" fill="#F4EBA7"/>
<path d="M49.1696 59.8854H45.4686V56.1844H49.1696V59.8854Z" fill="#F4EBA7"/>
<path d="M52.8708 59.8854H49.1698V56.1844H52.8708V59.8854Z" fill="#F4EBA7"/>
<path d="M56.6166 59.8854H52.8705V56.1844H56.6166V59.8854Z" fill="#F4EBA7"/>
<path d="M60.318 59.8854H56.617V56.1844H60.318V59.8854Z" fill="#F4EBA7"/>
<path d="M64.0187 59.8854H60.3177V56.1844H64.0187V59.8854Z" fill="#F4EBA7"/>
<path d="M67.765 59.8854H64.0189V56.1844H67.765V59.8854Z" fill="#F9C62C"/>
<path d="M71.466 59.8854H67.765V56.1844H71.466V59.8854Z" fill="#FFFAD7"/>
<path d="M75.1667 59.8854H71.4657V56.1844H75.1667V59.8854Z" fill="#FFFAD7"/>
<path d="M8.2781 63.6317H4.57709V59.8856H8.2781V63.6317Z" fill="#21201E"/>
<path d="M12.024 63.6317H8.2778V59.8856H12.024V63.6317Z" fill="#21201E"/>
<path d="M15.7249 63.6317H12.0239V59.8856H15.7249V63.6317Z" fill="#F9C62C"/>
<path d="M19.426 63.6317H15.725V59.8856H19.426V63.6317Z" fill="#F9C62C"/>
<path d="M23.1724 63.6317H19.4262V59.8856H23.1724V63.6317Z" fill="#F9C62C"/>
<path d="M26.8733 63.6317H23.1723V59.8856H26.8733V63.6317Z" fill="#F4EBA7"/>
<path d="M30.574 63.6317H26.873V59.8856H30.574V63.6317Z" fill="#F4EBA7"/>
<path d="M34.3203 63.6317H30.5742V59.8856H34.3203V63.6317Z" fill="#F4EBA7"/>
<path d="M38.0212 63.6317H34.3202V59.8856H38.0212V63.6317Z" fill="#F4EBA7"/>
<path d="M41.7224 63.6317H38.0214V59.8856H41.7224V63.6317Z" fill="#F4EBA7"/>
<path d="M45.4687 63.6317H41.7225V59.8856H45.4687V63.6317Z" fill="#F4EBA7"/>
<path d="M49.1696 63.6317H45.4686V59.8856H49.1696V63.6317Z" fill="#F4EBA7"/>
<path d="M52.8708 63.6317H49.1698V59.8856H52.8708V63.6317Z" fill="#F4EBA7"/>
<path d="M56.6166 63.6317H52.8705V59.8856H56.6166V63.6317Z" fill="#F4EBA7"/>
<path d="M60.318 63.6317H56.617V59.8856H60.318V63.6317Z" fill="#F4EBA7"/>
<path d="M64.0187 63.6317H60.3177V59.8856H64.0187V63.6317Z" fill="#F4EBA7"/>
<path d="M67.765 63.6317H64.0189V59.8856H67.765V63.6317Z" fill="#F4EBA7"/>
<path d="M71.466 63.6317H67.765V59.8856H71.466V63.6317Z" fill="#FFFAD7"/>
<path d="M75.1667 63.6317H71.4657V59.8856H75.1667V63.6317Z" fill="#FFFAD7"/>
<path d="M12.024 67.3331H8.2778V63.6321H12.024V67.3331Z" fill="#21201E"/>
<path d="M15.7249 67.3331H12.0239V63.6321H15.7249V67.3331Z" fill="#21201E"/>
<path d="M19.426 67.3331H15.725V63.6321H19.426V67.3331Z" fill="#21201E"/>
<path d="M23.1724 67.3331H19.4262V63.6321H23.1724V67.3331Z" fill="#F9C62C"/>
<path d="M26.8733 67.3331H23.1723V63.6321H26.8733V67.3331Z" fill="#F9C62C"/>
<path d="M30.574 67.3331H26.873V63.6321H30.574V67.3331Z" fill="#F9C62C"/>
<path d="M34.3203 67.3331H30.5742V63.6321H34.3203V67.3331Z" fill="#F9C62C"/>
<path d="M38.0212 67.3331H34.3202V63.6321H38.0212V67.3331Z" fill="#F4EBA7"/>
<path d="M41.7224 67.3331H38.0214V63.6321H41.7224V67.3331Z" fill="#F4EBA7"/>
<path d="M45.4687 67.3331H41.7225V63.6321H45.4687V67.3331Z" fill="#F4EBA7"/>
<path d="M49.1696 67.3331H45.4686V63.6321H49.1696V67.3331Z" fill="#F4EBA7"/>
<path d="M52.8708 67.3331H49.1698V63.6321H52.8708V67.3331Z" fill="#F4EBA7"/>
<path d="M56.6166 67.3331H52.8705V63.6321H56.6166V67.3331Z" fill="#F4EBA7"/>
<path d="M60.318 67.3331H56.617V63.6321H60.318V67.3331Z" fill="#F4EBA7"/>
<path d="M64.0187 67.3331H60.3177V63.6321H64.0187V67.3331Z" fill="#F4EBA7"/>
<path d="M67.765 67.3331H64.0189V63.6321H67.765V67.3331Z" fill="#FFFAD7"/>
<path d="M71.466 67.3331H67.765V63.6321H71.466V67.3331Z" fill="#FFFAD7"/>
<path d="M75.1667 67.3331H71.4657V63.6321H75.1667V67.3331Z" fill="#FFFAD7"/>
<path d="M15.7249 71.0334H12.0239V67.3323H15.7249V71.0334Z" fill="#21201E"/>
<path d="M19.426 71.0334H15.725V67.3323H19.426V71.0334Z" fill="#21201E"/>
<path d="M23.1724 71.0334H19.4262V67.3323H23.1724V71.0334Z" fill="#21201E"/>
<path d="M26.8733 71.0334H23.1723V67.3323H26.8733V71.0334Z" fill="#F9C62C"/>
<path d="M30.574 71.0334H26.873V67.3323H30.574V71.0334Z" fill="#F9C62C"/>
<path d="M34.3203 71.0334H30.5742V67.3323H34.3203V71.0334Z" fill="#F9C62C"/>
<path d="M38.0212 71.0334H34.3202V67.3323H38.0212V71.0334Z" fill="#F9C62C"/>
<path d="M41.7224 71.0334H38.0214V67.3323H41.7224V71.0334Z" fill="#F9C62C"/>
<path d="M45.4687 71.0334H41.7225V67.3323H45.4687V71.0334Z" fill="#FFFAD7"/>
<path d="M49.1696 71.0334H45.4686V67.3323H49.1696V71.0334Z" fill="#FFFAD7"/>
<path d="M52.8708 71.0334H49.1698V67.3323H52.8708V71.0334Z" fill="#FFFAD7"/>
<path d="M56.6166 71.0334H52.8705V67.3323H56.6166V71.0334Z" fill="#FFFAD7"/>
<path d="M60.318 71.0334H56.617V67.3323H60.318V71.0334Z" fill="#FFFAD7"/>
<path d="M64.0187 71.0334H60.3177V67.3323H64.0187V71.0334Z" fill="#FFFAD7"/>
<path d="M67.765 71.0334H64.0189V67.3323H67.765V71.0334Z" fill="#FFFAD7"/>
<path d="M71.466 71.0334H67.765V67.3323H71.466V71.0334Z" fill="#FFFAD7"/>
<path d="M75.1667 71.0334H71.4657V67.3323H75.1667V71.0334Z" fill="#FFFAD7"/>
<path d="M23.1724 74.7797H19.4262V71.0335H23.1724V74.7797Z" fill="#21201E"/>
<path d="M26.8733 74.7797H23.1723V71.0335H26.8733V74.7797Z" fill="#21201E"/>
<path d="M30.574 74.7797H26.873V71.0335H30.574V74.7797Z" fill="#F9C62C"/>
<path d="M34.3203 74.7797H30.5742V71.0335H34.3203V74.7797Z" fill="#F9C62C"/>
<path d="M38.0212 74.7797H34.3202V71.0335H38.0212V74.7797Z" fill="#F9C62C"/>
<path d="M41.7224 74.7797H38.0214V71.0335H41.7224V74.7797Z" fill="#F9C62C"/>
<path d="M45.4687 74.7797H41.7225V71.0335H45.4687V74.7797Z" fill="#F9C62C"/>
<path d="M49.1696 74.7797H45.4686V71.0335H49.1696V74.7797Z" fill="#FFFAD7"/>
<path d="M52.8708 74.7797H49.1698V71.0335H52.8708V74.7797Z" fill="#FFFAD7"/>
<path d="M56.6166 74.7797H52.8705V71.0335H56.6166V74.7797Z" fill="#FFFAD7"/>
<path d="M60.318 74.7797H56.617V71.0335H60.318V74.7797Z" fill="#FFFAD7"/>
<path d="M64.0187 74.7797H60.3177V71.0335H64.0187V74.7797Z" fill="#FFFAD7"/>
<path d="M67.765 74.7797H64.0189V71.0335H67.765V74.7797Z" fill="#FFFAD7"/>
<path d="M71.466 74.7797H67.765V71.0335H71.466V74.7797Z" fill="#FFFAD7"/>
<path d="M75.1667 74.7797H71.4657V71.0335H75.1667V74.7797Z" fill="#FFFAD7"/>
<path d="M26.8733 78.481H23.1723V74.78H26.8733V78.481Z" fill="#21201E"/>
<path d="M30.574 78.481H26.873V74.78H30.574V78.481Z" fill="#21201E"/>
<path d="M34.3203 78.481H30.5742V74.78H34.3203V78.481Z" fill="#F9C62C"/>
<path d="M38.0212 78.481H34.3202V74.78H38.0212V78.481Z" fill="#F9C62C"/>
<path d="M41.7224 78.481H38.0214V74.78H41.7224V78.481Z" fill="#F9C62C"/>
<path d="M45.4687 78.481H41.7225V74.78H45.4687V78.481Z" fill="#F9C62C"/>
<path d="M49.1696 78.481H45.4686V74.78H49.1696V78.481Z" fill="#F9C62C"/>
<path d="M52.8708 78.481H49.1698V74.78H52.8708V78.481Z" fill="#FFFAD7"/>
<path d="M56.6166 78.481H52.8705V74.78H56.6166V78.481Z" fill="#FFFAD7"/>
<path d="M60.318 78.481H56.617V74.78H60.318V78.481Z" fill="#FFFAD7"/>
<path d="M64.0187 78.481H60.3177V74.78H64.0187V78.481Z" fill="#FFFAD7"/>
<path d="M67.765 78.481H64.0189V74.78H67.765V78.481Z" fill="#FFFAD7"/>
<path d="M71.466 78.481H67.765V74.78H71.466V78.481Z" fill="#FFFAD7"/>
<path d="M75.1667 78.481H71.4657V74.78H75.1667V78.481Z" fill="#FFFAD7"/>
<path d="M30.574 82.1822H26.873V78.4812H30.574V82.1822Z" fill="#21201E"/>
<path d="M34.3203 82.1822H30.5742V78.4812H34.3203V82.1822Z" fill="#21201E"/>
<path d="M38.0212 82.1822H34.3202V78.4812H38.0212V82.1822Z" fill="#21201E"/>
<path d="M41.7224 82.1822H38.0214V78.4812H41.7224V82.1822Z" fill="#F9C62C"/>
<path d="M45.4687 82.1822H41.7225V78.4812H45.4687V82.1822Z" fill="#F9C62C"/>
<path d="M49.1696 82.1822H45.4686V78.4812H49.1696V82.1822Z" fill="#F9C62C"/>
<path d="M52.8708 82.1822H49.1698V78.4812H52.8708V82.1822Z" fill="#F9C62C"/>
<path d="M56.6166 82.1822H52.8705V78.4812H56.6166V82.1822Z" fill="#FFFAD7"/>
<path d="M60.318 82.1822H56.617V78.4812H60.318V82.1822Z" fill="#FFFAD7"/>
<path d="M64.0187 82.1822H60.3177V78.4812H64.0187V82.1822Z" fill="#FFFAD7"/>
<path d="M67.765 82.1822H64.0189V78.4812H67.765V82.1822Z" fill="#FFFAD7"/>
<path d="M71.466 82.1822H67.765V78.4812H71.466V82.1822Z" fill="#FFFAD7"/>
<path d="M75.1667 82.1822H71.4657V78.4812H75.1667V82.1822Z" fill="#FFFAD7"/>
<path d="M38.0212 85.9285H34.3202V82.1824H38.0212V85.9285Z" fill="#21201E"/>
<path d="M41.7224 85.9285H38.0214V82.1824H41.7224V85.9285Z" fill="#21201E"/>
<path d="M45.4687 85.9285H41.7225V82.1824H45.4687V85.9285Z" fill="#F9C62C"/>
<path d="M49.1696 85.9285H45.4686V82.1824H49.1696V85.9285Z" fill="#F9C62C"/>
<path d="M52.8708 85.9285H49.1698V82.1824H52.8708V85.9285Z" fill="#F9C62C"/>
<path d="M56.6166 85.9285H52.8705V82.1824H56.6166V85.9285Z" fill="#F9C62C"/>
<path d="M60.318 85.9285H56.617V82.1824H60.318V85.9285Z" fill="#F4EBA7"/>
<path d="M64.0187 85.9285H60.3177V82.1824H64.0187V85.9285Z" fill="#FFFAD7"/>
<path d="M67.765 85.9285H64.0189V82.1824H67.765V85.9285Z" fill="#FFFAD7"/>
<path d="M71.466 85.9285H67.765V82.1824H71.466V85.9285Z" fill="#FFFAD7"/>
<path d="M75.1667 85.9285H71.4657V82.1824H75.1667V85.9285Z" fill="#FFFAD7"/>
<path d="M41.7224 89.629H38.0214V85.928H41.7224V89.629Z" fill="#21201E"/>
<path d="M45.4687 89.629H41.7225V85.928H45.4687V89.629Z" fill="#21201E"/>
<path d="M49.1696 89.629H45.4686V85.928H49.1696V89.629Z" fill="#F9C62C"/>
<path d="M52.8708 89.629H49.1698V85.928H52.8708V89.629Z" fill="#F9C62C"/>
<path d="M56.6166 89.629H52.8705V85.928H56.6166V89.629Z" fill="#F9C62C"/>
<path d="M60.318 89.629H56.617V85.928H60.318V89.629Z" fill="#F4EBA7"/>
<path d="M64.0187 89.629H60.3177V85.928H64.0187V89.629Z" fill="#FFFAD7"/>
<path d="M67.765 89.629H64.0189V85.928H67.765V89.629Z" fill="#FFFAD7"/>
<path d="M71.466 89.629H67.765V85.928H71.466V89.629Z" fill="#FFFAD7"/>
<path d="M75.1667 89.629H71.4657V85.928H75.1667V89.629Z" fill="#FFFAD7"/>
<path d="M45.4687 93.3302H41.7225V89.6292H45.4687V93.3302Z" fill="#21201E"/>
<path d="M49.1696 93.3302H45.4686V89.6292H49.1696V93.3302Z" fill="#21201E"/>
<path d="M52.8708 93.3302H49.1698V89.6292H52.8708V93.3302Z" fill="#F9C62C"/>
<path d="M56.6166 93.3302H52.8705V89.6292H56.6166V93.3302Z" fill="#F4EBA7"/>
<path d="M60.318 93.3302H56.617V89.6292H60.318V93.3302Z" fill="#FFFAD7"/>
<path d="M64.0187 93.3302H60.3177V89.6292H64.0187V93.3302Z" fill="#FFFAD7"/>
<path d="M67.765 93.3302H64.0189V89.6292H67.765V93.3302Z" fill="#FFFAD7"/>
<path d="M71.466 93.3302H67.765V89.6292H71.466V93.3302Z" fill="#FFFAD7"/>
<path d="M75.1667 93.3302H71.4657V89.6292H75.1667V93.3302Z" fill="#FFFAD7"/>
<path d="M45.4687 97.0765H41.7225V93.3303H45.4687V97.0765Z" fill="#21201E"/>
<path d="M49.1696 97.0765H45.4686V93.3303H49.1696V97.0765Z" fill="#F4EBA7"/>
<path d="M52.8708 97.0765H49.1698V93.3303H52.8708V97.0765Z" fill="#F4EBA7"/>
<path d="M56.6166 97.0765H52.8705V93.3303H56.6166V97.0765Z" fill="#F4EBA7"/>
<path d="M60.318 97.0765H56.617V93.3303H60.318V97.0765Z" fill="#FFFAD7"/>
<path d="M64.0187 97.0765H60.3177V93.3303H64.0187V97.0765Z" fill="#FFFAD7"/>
<path d="M67.765 97.0765H64.0189V93.3303H67.765V97.0765Z" fill="#FFFAD7"/>
<path d="M71.466 97.0765H67.765V93.3303H71.466V97.0765Z" fill="#FFFAD7"/>
<path d="M75.1667 97.0765H71.4657V93.3303H75.1667V97.0765Z" fill="#FFFAD7"/>
<path d="M41.7224 100.778H38.0214V97.0768H41.7224V100.778Z" fill="#21201E"/>
<path d="M45.4687 100.778H41.7225V97.0768H45.4687V100.778Z" fill="#21201E"/>
<path d="M49.1696 100.778H45.4686V97.0768H49.1696V100.778Z" fill="#F4EBA7"/>
<path d="M52.8708 100.778H49.1698V97.0768H52.8708V100.778Z" fill="#F4EBA7"/>
<path d="M56.6166 100.778H52.8705V97.0768H56.6166V100.778Z" fill="#F4EBA7"/>
<path d="M60.318 100.778H56.617V97.0768H60.318V100.778Z" fill="#FFFAD7"/>
<path d="M63.9736 100.778H60.2275V97.0768H63.9736V100.778Z" fill="#FFFAD7"/>
<path d="M67.7648 100.778H63.9735V97.0768H67.7648V100.778Z" fill="#FFFAD7"/>
<path d="M71.466 100.778H67.765V97.0768H71.466V100.778Z" fill="#FFFAD7"/>
<path d="M75.1667 100.778H71.4657V97.0768H75.1667V100.778Z" fill="#F9C62C"/>
<path d="M41.7224 104.479H38.0214V100.778H41.7224V104.479Z" fill="#21201E"/>
<path d="M45.4687 104.479H41.7225V100.778H45.4687V104.479Z" fill="#F4EBA7"/>
<path d="M49.1696 104.479H45.4686V100.778H49.1696V104.479Z" fill="#F4EBA7"/>
<path d="M52.8708 104.479H49.1698V100.778H52.8708V104.479Z" fill="#F4EBA7"/>
<path d="M56.6166 104.479H52.8705V100.778H56.6166V104.479Z" fill="#FFFAD7"/>
<path d="M60.318 104.479H56.617V100.778H60.318V104.479Z" fill="#FFFAD7"/>
<path d="M63.9736 104.479H60.2275V100.778H63.9736V104.479Z" fill="#FFFAD7"/>
<path d="M67.7648 104.479H63.9735V100.778H67.7648V104.479Z" fill="#F9C62C"/>
<path d="M71.466 104.479H67.765V100.778H71.466V104.479Z" fill="#F9C62C"/>
<path d="M75.1667 104.479H71.4657V100.778H75.1667V104.479Z" fill="#F9C62C"/>
<path d="M41.7224 108.224H38.0214V104.478H41.7224V108.224Z" fill="#21201E"/>
<path d="M45.4687 108.224H41.7225V104.478H45.4687V108.224Z" fill="#F4EBA7"/>
<path d="M49.1696 108.224H45.4686V104.478H49.1696V108.224Z" fill="#F4EBA7"/>
<path d="M52.8708 108.224H49.1698V104.478H52.8708V108.224Z" fill="#F4EBA7"/>
<path d="M56.6166 108.224H52.8705V104.478H56.6166V108.224Z" fill="#FFFAD7"/>
<path d="M60.318 108.224H56.617V104.478H60.318V108.224Z" fill="#FFFAD7"/>
<path d="M63.9736 108.224H60.2275V104.478H63.9736V108.224Z" fill="#F9C62C"/>
<path d="M67.7648 108.224H63.9735V104.478H67.7648V108.224Z" fill="#F9C62C"/>
<path d="M71.466 108.224H67.765V104.478H71.466V108.224Z" fill="#F9C62C"/>
<path d="M75.1667 108.224H71.4657V104.478H75.1667V108.224Z" fill="#F9C62C"/>
<path d="M38.0212 111.925H34.3202V108.224H38.0212V111.925Z" fill="#21201E"/>
<path d="M41.7224 111.925H38.0214V108.224H41.7224V111.925Z" fill="#21201E"/>
<path d="M45.4687 111.925H41.7225V108.224H45.4687V111.925Z" fill="#F4EBA7"/>
<path d="M49.1696 111.925H45.4686V108.224H49.1696V111.925Z" fill="#F4EBA7"/>
<path d="M52.8708 111.925H49.1698V108.224H52.8708V111.925Z" fill="#F4EBA7"/>
<path d="M56.6166 111.925H52.8705V108.224H56.6166V111.925Z" fill="#FFFAD7"/>
<path d="M60.2273 111.925H56.5263V108.224H60.2273V111.925Z" fill="#F9C62C"/>
<path d="M63.9736 111.925H60.2275V108.224H63.9736V111.925Z" fill="#F9C62C"/>
<path d="M67.7648 111.925H63.9735V108.224H67.7648V111.925Z" fill="#F9C62C"/>
<path d="M71.466 111.925H67.765V108.224H71.466V111.925Z" fill="#F9C62C"/>
<path d="M75.1667 111.925H71.4657V108.224H75.1667V111.925Z" fill="#21201E"/>
<path d="M38.0212 115.627H34.3202V111.926H38.0212V115.627Z" fill="#21201E"/>
<path d="M41.7224 115.627H38.0214V111.926H41.7224V115.627Z" fill="#21201E"/>
<path d="M45.4687 115.627H41.7225V111.926H45.4687V115.627Z" fill="#F4EBA7"/>
<path d="M49.1696 115.627H45.4686V111.926H49.1696V115.627Z" fill="#F4EBA7"/>
<path d="M52.8252 115.627H49.0791V111.926H52.8252V115.627Z" fill="#F4EBA7"/>
<path d="M56.5266 115.627H52.8256V111.926H56.5266V115.627Z" fill="#F9C62C"/>
<path d="M60.2273 115.627H56.5263V111.926H60.2273V115.627Z" fill="#F9C62C"/>
<path d="M63.9736 115.627H60.2275V111.926H63.9736V115.627Z" fill="#F9C62C"/>
<path d="M67.7648 115.627H63.9735V111.926H67.7648V115.627Z" fill="#F9C62C"/>
<path d="M71.466 115.627H67.765V111.926H71.466V115.627Z" fill="#21201E"/>
<path d="M75.1667 115.627H71.4657V111.926H75.1667V115.627Z" fill="#21201E"/>
<path d="M38.0212 119.373H34.3202V115.627H38.0212V119.373Z" fill="#21201E"/>
<path d="M41.7224 119.373H38.0214V115.627H41.7224V119.373Z" fill="#F4EBA7"/>
<path d="M45.4687 119.373H41.7225V115.627H45.4687V119.373Z" fill="#F4EBA7"/>
<path d="M49.1696 119.373H45.4686V115.627H49.1696V119.373Z" fill="#F4EBA7"/>
<path d="M52.8252 119.373H49.0791V115.627H52.8252V119.373Z" fill="#F9C62C"/>
<path d="M56.5266 119.373H52.8256V115.627H56.5266V119.373Z" fill="#F9C62C"/>
<path d="M60.2273 119.373H56.5263V115.627H60.2273V119.373Z" fill="#F9C62C"/>
<path d="M63.9736 119.373H60.2275V115.627H63.9736V119.373Z" fill="#21201E"/>
<path d="M67.7648 119.373H63.9735V115.627H67.7648V119.373Z" fill="#21201E"/>
<path d="M71.466 119.373H67.765V115.627H71.466V119.373Z" fill="#21201E"/>
<path d="M34.3203 123.074H30.5742V119.373H34.3203V123.074Z" fill="#21201E"/>
<path d="M38.0212 123.074H34.3202V119.373H38.0212V123.074Z" fill="#21201E"/>
<path d="M41.7224 123.074H38.0214V119.373H41.7224V123.074Z" fill="#F4EBA7"/>
<path d="M45.4687 123.074H41.7225V119.373H45.4687V123.074Z" fill="#F4EBA7"/>
<path d="M49.1696 123.074H45.4686V119.373H49.1696V123.074Z" fill="#F9C62C"/>
<path d="M52.8708 123.074H49.1698V119.373H52.8708V123.074Z" fill="#F9C62C"/>
<path d="M56.5266 123.074H52.8256V119.373H56.5266V123.074Z" fill="#F9C62C"/>
<path d="M60.2273 123.074H56.5263V119.373H60.2273V123.074Z" fill="#21201E"/>
<path d="M63.9736 123.074H60.2275V119.373H63.9736V123.074Z" fill="#21201E"/>
<path d="M34.3203 126.774H30.5742V123.073H34.3203V126.774Z" fill="#21201E"/>
<path d="M38.0212 126.774H34.3202V123.073H38.0212V126.774Z" fill="#F4EBA7"/>
<path d="M41.7224 126.774H38.0214V123.073H41.7224V126.774Z" fill="#F4EBA7"/>
<path d="M45.4687 126.774H41.7225V123.073H45.4687V126.774Z" fill="#F9C62C"/>
<path d="M49.1696 126.774H45.4686V123.073H49.1696V126.774Z" fill="#F9C62C"/>
<path d="M52.8708 126.774H49.1698V123.073H52.8708V126.774Z" fill="#21201E"/>
<path d="M56.5266 126.774H52.8256V123.073H56.5266V126.774Z" fill="#21201E"/>
<path d="M60.2273 126.774H56.5263V123.073H60.2273V126.774Z" fill="#21201E"/>
<path d="M34.3203 130.521H30.5742V126.775H34.3203V130.521Z" fill="#21201E"/>
<path d="M38.0212 130.521H34.3202V126.775H38.0212V130.521Z" fill="#F4EBA7"/>
<path d="M41.7224 130.521H38.0214V126.775H41.7224V130.521Z" fill="#F9C62C"/>
<path d="M45.4687 130.521H41.7225V126.775H45.4687V130.521Z" fill="#F9C62C"/>
<path d="M49.1696 130.521H45.4686V126.775H49.1696V130.521Z" fill="#21201E"/>
<path d="M52.8252 130.521H49.0791V126.775H52.8252V130.521Z" fill="#21201E"/>
<path d="M30.574 134.222H26.873V130.521H30.574V134.222Z" fill="#21201E"/>
<path d="M34.3203 134.222H30.5742V130.521H34.3203V134.222Z" fill="#21201E"/>
<path d="M38.0212 134.222H34.3202V130.521H38.0212V134.222Z" fill="#F9C62C"/>
<path d="M41.7224 134.222H38.0214V130.521H41.7224V134.222Z" fill="#F9C62C"/>
<path d="M45.4687 134.222H41.7225V130.521H45.4687V134.222Z" fill="#21201E"/>
<path d="M49.1696 134.222H45.4686V130.521H49.1696V134.222Z" fill="#21201E"/>
<path d="M30.574 137.923H26.873V134.222H30.574V137.923Z" fill="#21201E"/>
<path d="M34.3203 137.923H30.5742V134.222H34.3203V137.923Z" fill="#F9C62C"/>
<path d="M38.0212 137.923H34.3202V134.222H38.0212V137.923Z" fill="#21201E"/>
<path d="M41.7224 137.923H38.0214V134.222H41.7224V137.923Z" fill="#21201E"/>
<path d="M45.4687 137.923H41.7225V134.222H45.4687V137.923Z" fill="#21201E"/>
<path d="M30.574 141.669H26.873V137.923H30.574V141.669Z" fill="#21201E"/>
<path d="M34.3203 141.669H30.5742V137.923H34.3203V141.669Z" fill="#21201E"/>
<path d="M38.0212 141.669H34.3202V137.923H38.0212V141.669Z" fill="#21201E"/>
<path d="M75.1668 4.1899H78.913V0.443726H75.1668V4.1899Z" fill="#21201E"/>
<path d="M78.9134 7.89124H82.6144V4.19025H78.9134V7.89124Z" fill="#21201E"/>
<path d="M75.1668 7.89124H78.913V4.19025H75.1668V7.89124Z" fill="#21201E"/>
<path d="M78.9134 11.5915H82.6144V7.8905H78.9134V11.5915Z" fill="#21201E"/>
<path d="M75.1668 11.5915H78.913V7.8905H75.1668V11.5915Z" fill="#F4EBA7"/>
<path d="M78.9134 15.3378H82.6144V11.5917H78.9134V15.3378Z" fill="#21201E"/>
<path d="M75.1668 15.3378H78.913V11.5917H75.1668V15.3378Z" fill="#F4EBA7"/>
<path d="M82.6141 19.0392H86.3151V15.3382H82.6141V19.0392Z" fill="#21201E"/>
<path d="M78.9134 19.0392H82.6144V15.3382H78.9134V19.0392Z" fill="#21201E"/>
<path d="M75.1668 19.0392H78.913V15.3382H75.1668V19.0392Z" fill="#F4EBA7"/>
<path d="M82.6141 22.7404H86.3151V19.0394H82.6141V22.7404Z" fill="#21201E"/>
<path d="M78.9134 22.7404H82.6144V19.0394H78.9134V22.7404Z" fill="#F4EBA7"/>
<path d="M75.1668 22.7404H78.913V19.0394H75.1668V22.7404Z" fill="#F4EBA7"/>
<path d="M82.6141 26.4406H86.3151V22.7396H82.6141V26.4406Z" fill="#21201E"/>
<path d="M78.9134 26.4406H82.6144V22.7396H78.9134V26.4406Z" fill="#F4EBA7"/>
<path d="M75.1668 26.4406H78.913V22.7396H75.1668V26.4406Z" fill="#F4EBA7"/>
<path d="M86.3148 30.1879H90.0609V26.4417H86.3148V30.1879Z" fill="#21201E"/>
<path d="M82.6141 30.1879H86.3151V26.4417H82.6141V30.1879Z" fill="#21201E"/>
<path d="M78.9134 30.1879H82.6144V26.4417H78.9134V30.1879Z" fill="#F4EBA7"/>
<path d="M75.1668 30.1879H78.913V26.4417H75.1668V30.1879Z" fill="#F4EBA7"/>
<path d="M86.3148 33.8883H90.0609V30.1873H86.3148V33.8883Z" fill="#21201E"/>
<path d="M82.6141 33.8883H86.3151V30.1873H82.6141V33.8883Z" fill="#F4EBA7"/>
<path d="M78.9134 33.8883H82.6144V30.1873H78.9134V33.8883Z" fill="#F4EBA7"/>
<path d="M75.1668 33.8883H78.913V30.1873H75.1668V33.8883Z" fill="#F4EBA7"/>
<path d="M86.3148 37.5895H90.0609V33.8885H86.3148V37.5895Z" fill="#21201E"/>
<path d="M82.6141 37.5895H86.3151V33.8885H82.6141V37.5895Z" fill="#F4EBA7"/>
<path d="M78.9134 37.5895H82.6144V33.8885H78.9134V37.5895Z" fill="#F4EBA7"/>
<path d="M75.1668 37.5895H78.913V33.8885H75.1668V37.5895Z" fill="#F4EBA7"/>
<path d="M90.0613 41.3358H93.7623V37.5897H90.0613V41.3358Z" fill="#21201E"/>
<path d="M86.3148 41.3358H90.0609V37.5897H86.3148V41.3358Z" fill="#21201E"/>
<path d="M82.6141 41.3358H86.3151V37.5897H82.6141V41.3358Z" fill="#F4EBA7"/>
<path d="M78.9134 41.3358H82.6144V37.5897H78.9134V41.3358Z" fill="#F4EBA7"/>
<path d="M75.1668 41.3358H78.913V37.5897H75.1668V41.3358Z" fill="#F4EBA7"/>
<path d="M90.0613 45.0363H93.7623V41.3353H90.0613V45.0363Z" fill="#21201E"/>
<path d="M86.3148 45.0363H90.0609V41.3353H86.3148V45.0363Z" fill="#F4EBA7"/>
<path d="M82.6141 45.0363H86.3151V41.3353H82.6141V45.0363Z" fill="#F4EBA7"/>
<path d="M78.9134 45.0363H82.6144V41.3353H78.9134V45.0363Z" fill="#F4EBA7"/>
<path d="M75.1668 45.0363H78.913V41.3353H75.1668V45.0363Z" fill="#FFFAD7"/>
<path d="M90.0613 48.7374H93.7623V45.0364H90.0613V48.7374Z" fill="#21201E"/>
<path d="M86.3148 48.7374H90.0609V45.0364H86.3148V48.7374Z" fill="#F4EBA7"/>
<path d="M82.6141 48.7374H86.3151V45.0364H82.6141V48.7374Z" fill="#F4EBA7"/>
<path d="M78.9134 48.7374H82.6144V45.0364H78.9134V48.7374Z" fill="#F4EBA7"/>
<path d="M75.1668 48.7374H78.913V45.0364H75.1668V48.7374Z" fill="#FFFAD7"/>
<path d="M90.0613 52.4838H93.7623V48.7376H90.0613V52.4838Z" fill="#21201E"/>
<path d="M86.3148 52.4838H90.0609V48.7376H86.3148V52.4838Z" fill="#F4EBA7"/>
<path d="M82.6141 52.4838H86.3151V48.7376H82.6141V52.4838Z" fill="#F4EBA7"/>
<path d="M78.9134 52.4838H82.6144V48.7376H78.9134V52.4838Z" fill="#F4EBA7"/>
<path d="M75.1668 52.4838H78.913V48.7376H75.1668V52.4838Z" fill="#FFFAD7"/>
<path d="M145.802 56.1842H149.503V52.4832H145.802V56.1842Z" fill="#21201E"/>
<path d="M142.056 56.1842H145.802V52.4832H142.056V56.1842Z" fill="#21201E"/>
<path d="M138.355 56.1842H142.056V52.4832H138.355V56.1842Z" fill="#21201E"/>
<path d="M134.654 56.1842H138.355V52.4832H134.654V56.1842Z" fill="#21201E"/>
<path d="M130.908 56.1842H134.654V52.4832H130.908V56.1842Z" fill="#21201E"/>
<path d="M127.207 56.1842H130.908V52.4832H127.207V56.1842Z" fill="#21201E"/>
<path d="M123.506 56.1842H127.207V52.4832H123.506V56.1842Z" fill="#21201E"/>
<path d="M119.76 56.1842H123.506V52.4832H119.76V56.1842Z" fill="#21201E"/>
<path d="M116.059 56.1842H119.76V52.4832H116.059V56.1842Z" fill="#21201E"/>
<path d="M112.358 56.1842H116.059V52.4832H112.358V56.1842Z" fill="#21201E"/>
<path d="M108.612 56.1842H112.358V52.4832H108.612V56.1842Z" fill="#21201E"/>
<path d="M104.91 56.1842H108.611V52.4832H104.91V56.1842Z" fill="#21201E"/>
<path d="M101.209 56.1842H104.91V52.4832H101.209V56.1842Z" fill="#21201E"/>
<path d="M97.4632 56.1842H101.209V52.4832H97.4632V56.1842Z" fill="#21201E"/>
<path d="M93.762 56.1842H97.463V52.4832H93.762V56.1842Z" fill="#21201E"/>
<path d="M90.0613 56.1842H93.7623V52.4832H90.0613V56.1842Z" fill="#21201E"/>
<path d="M86.3148 56.1842H90.0609V52.4832H86.3148V56.1842Z" fill="#F4EBA7"/>
<path d="M82.6141 56.1842H86.3151V52.4832H82.6141V56.1842Z" fill="#F4EBA7"/>
<path d="M78.9134 56.1842H82.6144V52.4832H78.9134V56.1842Z" fill="#FFFAD7"/>
<path d="M75.1668 56.1842H78.913V52.4832H75.1668V56.1842Z" fill="#FFFAD7"/>
<path d="M145.802 59.8854H149.503V56.1844H145.802V59.8854Z" fill="#21201E"/>
<path d="M142.056 59.8854H145.802V56.1844H142.056V59.8854Z" fill="#21201E"/>
<path d="M138.355 59.8854H142.056V56.1844H138.355V59.8854Z" fill="#F4EBA7"/>
<path d="M134.654 59.8854H138.355V56.1844H134.654V59.8854Z" fill="#F9C62C"/>
<path d="M130.908 59.8854H134.654V56.1844H130.908V59.8854Z" fill="#F9C62C"/>
<path d="M127.207 59.8854H130.908V56.1844H127.207V59.8854Z" fill="#F9C62C"/>
<path d="M123.506 59.8854H127.207V56.1844H123.506V59.8854Z" fill="#F9C62C"/>
<path d="M119.76 59.8854H123.506V56.1844H119.76V59.8854Z" fill="#F9C62C"/>
<path d="M116.059 59.8854H119.76V56.1844H116.059V59.8854Z" fill="#F9C62C"/>
<path d="M112.358 59.8854H116.059V56.1844H112.358V59.8854Z" fill="#F9C62C"/>
<path d="M108.612 59.8854H112.358V56.1844H108.612V59.8854Z" fill="#F9C62C"/>
<path d="M104.91 59.8854H108.611V56.1844H104.91V59.8854Z" fill="#F9C62C"/>
<path d="M101.209 59.8854H104.91V56.1844H101.209V59.8854Z" fill="#F9C62C"/>
<path d="M97.4632 59.8854H101.209V56.1844H97.4632V59.8854Z" fill="#F9C62C"/>
<path d="M93.762 59.8854H97.463V56.1844H93.762V59.8854Z" fill="#F9C62C"/>
<path d="M90.0613 59.8854H93.7623V56.1844H90.0613V59.8854Z" fill="#F9C62C"/>
<path d="M86.3148 59.8854H90.0609V56.1844H86.3148V59.8854Z" fill="#F4EBA7"/>
<path d="M82.6141 59.8854H86.3151V56.1844H82.6141V59.8854Z" fill="#F4EBA7"/>
<path d="M78.9134 59.8854H82.6144V56.1844H78.9134V59.8854Z" fill="#FFFAD7"/>
<path d="M75.1668 59.8854H78.913V56.1844H75.1668V59.8854Z" fill="#FFFAD7"/>
<path d="M142.056 63.6317H145.802V59.8856H142.056V63.6317Z" fill="#21201E"/>
<path d="M138.355 63.6317H142.056V59.8856H138.355V63.6317Z" fill="#21201E"/>
<path d="M134.654 63.6317H138.355V59.8856H134.654V63.6317Z" fill="#F4EBA7"/>
<path d="M130.908 63.6317H134.654V59.8856H130.908V63.6317Z" fill="#F4EBA7"/>
<path d="M127.207 63.6317H130.908V59.8856H127.207V63.6317Z" fill="#F4EBA7"/>
<path d="M123.506 63.6317H127.207V59.8856H123.506V63.6317Z" fill="#F9C62C"/>
<path d="M119.76 63.6317H123.506V59.8856H119.76V63.6317Z" fill="#F9C62C"/>
<path d="M116.059 63.6317H119.76V59.8856H116.059V63.6317Z" fill="#F9C62C"/>
<path d="M112.358 63.6317H116.059V59.8856H112.358V63.6317Z" fill="#F9C62C"/>
<path d="M108.612 63.6317H112.358V59.8856H108.612V63.6317Z" fill="#F9C62C"/>
<path d="M104.91 63.6317H108.611V59.8856H104.91V63.6317Z" fill="#F9C62C"/>
<path d="M101.209 63.6317H104.91V59.8856H101.209V63.6317Z" fill="#F9C62C"/>
<path d="M97.4632 63.6317H101.209V59.8856H97.4632V63.6317Z" fill="#F9C62C"/>
<path d="M93.762 63.6317H97.463V59.8856H93.762V63.6317Z" fill="#F9C62C"/>
<path d="M90.0613 63.6317H93.7623V59.8856H90.0613V63.6317Z" fill="#F9C62C"/>
<path d="M86.3148 63.6317H90.0609V59.8856H86.3148V63.6317Z" fill="#F9C62C"/>
<path d="M82.6141 63.6317H86.3151V59.8856H82.6141V63.6317Z" fill="#F4EBA7"/>
<path d="M78.9134 63.6317H82.6144V59.8856H78.9134V63.6317Z" fill="#FFFAD7"/>
<path d="M75.1668 63.6317H78.913V59.8856H75.1668V63.6317Z" fill="#FFFAD7"/>
<path d="M138.355 67.3331H142.056V63.6321H138.355V67.3331Z" fill="#21201E"/>
<path d="M134.654 67.3331H138.355V63.6321H134.654V67.3331Z" fill="#21201E"/>
<path d="M130.908 67.3331H134.654V63.6321H130.908V67.3331Z" fill="#21201E"/>
<path d="M127.207 67.3331H130.908V63.6321H127.207V67.3331Z" fill="#F4EBA7"/>
<path d="M123.506 67.3331H127.207V63.6321H123.506V67.3331Z" fill="#F4EBA7"/>
<path d="M119.76 67.3331H123.506V63.6321H119.76V67.3331Z" fill="#F4EBA7"/>
<path d="M116.059 67.3331H119.76V63.6321H116.059V67.3331Z" fill="#F9C62C"/>
<path d="M112.358 67.3331H116.059V63.6321H112.358V67.3331Z" fill="#F9C62C"/>
<path d="M108.612 67.3331H112.358V63.6321H108.612V67.3331Z" fill="#F9C62C"/>
<path d="M104.91 67.3331H108.611V63.6321H104.91V67.3331Z" fill="#F9C62C"/>
<path d="M101.209 67.3331H104.91V63.6321H101.209V67.3331Z" fill="#F9C62C"/>
<path d="M97.4632 67.3331H101.209V63.6321H97.4632V67.3331Z" fill="#F9C62C"/>
<path d="M93.762 67.3331H97.463V63.6321H93.762V67.3331Z" fill="#F9C62C"/>
<path d="M90.0613 67.3331H93.7623V63.6321H90.0613V67.3331Z" fill="#F9C62C"/>
<path d="M86.3148 67.3331H90.0609V63.6321H86.3148V67.3331Z" fill="#F9C62C"/>
<path d="M82.6141 67.3331H86.3151V63.6321H82.6141V67.3331Z" fill="#FFFAD7"/>
<path d="M78.9134 67.3331H82.6144V63.6321H78.9134V67.3331Z" fill="#FFFAD7"/>
<path d="M75.1668 67.3331H78.913V63.6321H75.1668V67.3331Z" fill="#FFFAD7"/>
<path d="M134.654 71.0334H138.355V67.3323H134.654V71.0334Z" fill="#21201E"/>
<path d="M130.908 71.0334H134.654V67.3323H130.908V71.0334Z" fill="#21201E"/>
<path d="M127.207 71.0334H130.908V67.3323H127.207V71.0334Z" fill="#21201E"/>
<path d="M123.506 71.0334H127.207V67.3323H123.506V71.0334Z" fill="#F4EBA7"/>
<path d="M119.76 71.0334H123.506V67.3323H119.76V71.0334Z" fill="#F4EBA7"/>
<path d="M116.059 71.0334H119.76V67.3323H116.059V71.0334Z" fill="#F4EBA7"/>
<path d="M112.358 71.0334H116.059V67.3323H112.358V71.0334Z" fill="#F4EBA7"/>
<path d="M108.612 71.0334H112.358V67.3323H108.612V71.0334Z" fill="#F4EBA7"/>
<path d="M104.91 71.0334H108.611V67.3323H104.91V71.0334Z" fill="#FFFAD7"/>
<path d="M101.209 71.0334H104.91V67.3323H101.209V71.0334Z" fill="#FFFAD7"/>
<path d="M97.4632 71.0334H101.209V67.3323H97.4632V71.0334Z" fill="#FFFAD7"/>
<path d="M93.762 71.0334H97.463V67.3323H93.762V71.0334Z" fill="#FFFAD7"/>
<path d="M90.0613 71.0334H93.7623V67.3323H90.0613V71.0334Z" fill="#FFFAD7"/>
<path d="M86.3148 71.0334H90.0609V67.3323H86.3148V71.0334Z" fill="#FFFAD7"/>
<path d="M82.6141 71.0334H86.3151V67.3323H82.6141V71.0334Z" fill="#FFFAD7"/>
<path d="M78.9134 71.0334H82.6144V67.3323H78.9134V71.0334Z" fill="#FFFAD7"/>
<path d="M75.1668 71.0334H78.913V67.3323H75.1668V71.0334Z" fill="#FFFAD7"/>
<path d="M127.207 74.7797H130.908V71.0335H127.207V74.7797Z" fill="#21201E"/>
<path d="M123.506 74.7797H127.207V71.0335H123.506V74.7797Z" fill="#21201E"/>
<path d="M119.76 74.7797H123.506V71.0335H119.76V74.7797Z" fill="#F4EBA7"/>
<path d="M116.059 74.7797H119.76V71.0335H116.059V74.7797Z" fill="#F4EBA7"/>
<path d="M112.358 74.7797H116.059V71.0335H112.358V74.7797Z" fill="#F4EBA7"/>
<path d="M108.612 74.7797H112.358V71.0335H108.612V74.7797Z" fill="#F4EBA7"/>
<path d="M104.91 74.7797H108.611V71.0335H104.91V74.7797Z" fill="#F4EBA7"/>
<path d="M101.209 74.7797H104.91V71.0335H101.209V74.7797Z" fill="#FFFAD7"/>
<path d="M97.4632 74.7797H101.209V71.0335H97.4632V74.7797Z" fill="#FFFAD7"/>
<path d="M93.762 74.7797H97.463V71.0335H93.762V74.7797Z" fill="#FFFAD7"/>
<path d="M90.0613 74.7797H93.7623V71.0335H90.0613V74.7797Z" fill="#FFFAD7"/>
<path d="M86.3148 74.7797H90.0609V71.0335H86.3148V74.7797Z" fill="#FFFAD7"/>
<path d="M82.6141 74.7797H86.3151V71.0335H82.6141V74.7797Z" fill="#FFFAD7"/>
<path d="M78.9134 74.7797H82.6144V71.0335H78.9134V74.7797Z" fill="#FFFAD7"/>
<path d="M75.1668 74.7797H78.913V71.0335H75.1668V74.7797Z" fill="#FFFAD7"/>
<path d="M123.506 78.481H127.207V74.78H123.506V78.481Z" fill="#21201E"/>
<path d="M119.76 78.481H123.506V74.78H119.76V78.481Z" fill="#21201E"/>
<path d="M116.059 78.481H119.76V74.78H116.059V78.481Z" fill="#F4EBA7"/>
<path d="M112.358 78.481H116.059V74.78H112.358V78.481Z" fill="#F4EBA7"/>
<path d="M108.612 78.481H112.358V74.78H108.612V78.481Z" fill="#F4EBA7"/>
<path d="M104.91 78.481H108.611V74.78H104.91V78.481Z" fill="#F4EBA7"/>
<path d="M101.209 78.481H104.91V74.78H101.209V78.481Z" fill="#F4EBA7"/>
<path d="M97.4632 78.481H101.209V74.78H97.4632V78.481Z" fill="#FFFAD7"/>
<path d="M93.762 78.481H97.463V74.78H93.762V78.481Z" fill="#FFFAD7"/>
<path d="M90.0613 78.481H93.7623V74.78H90.0613V78.481Z" fill="#FFFAD7"/>
<path d="M86.3148 78.481H90.0609V74.78H86.3148V78.481Z" fill="#FFFAD7"/>
<path d="M82.6141 78.481H86.3151V74.78H82.6141V78.481Z" fill="#FFFAD7"/>
<path d="M78.9134 78.481H82.6144V74.78H78.9134V78.481Z" fill="#FFFAD7"/>
<path d="M75.1668 78.481H78.913V74.78H75.1668V78.481Z" fill="#FFFAD7"/>
<path d="M119.76 82.1822H123.506V78.4812H119.76V82.1822Z" fill="#21201E"/>
<path d="M116.059 82.1822H119.76V78.4812H116.059V82.1822Z" fill="#21201E"/>
<path d="M112.358 82.1822H116.059V78.4812H112.358V82.1822Z" fill="#21201E"/>
<path d="M108.612 82.1822H112.358V78.4812H108.612V82.1822Z" fill="#F4EBA7"/>
<path d="M104.91 82.1822H108.611V78.4812H104.91V82.1822Z" fill="#F4EBA7"/>
<path d="M101.209 82.1822H104.91V78.4812H101.209V82.1822Z" fill="#F4EBA7"/>
<path d="M97.4632 82.1822H101.209V78.4812H97.4632V82.1822Z" fill="#F4EBA7"/>
<path d="M93.762 82.1822H97.463V78.4812H93.762V82.1822Z" fill="#FFFAD7"/>
<path d="M90.0613 82.1822H93.7623V78.4812H90.0613V82.1822Z" fill="#FFFAD7"/>
<path d="M86.3148 82.1822H90.0609V78.4812H86.3148V82.1822Z" fill="#FFFAD7"/>
<path d="M82.6141 82.1822H86.3151V78.4812H82.6141V82.1822Z" fill="#FFFAD7"/>
<path d="M78.9134 82.1822H82.6144V78.4812H78.9134V82.1822Z" fill="#FFFAD7"/>
<path d="M75.1668 82.1822H78.913V78.4812H75.1668V82.1822Z" fill="#FFFAD7"/>
<path d="M112.358 85.9285H116.059V82.1824H112.358V85.9285Z" fill="#21201E"/>
<path d="M108.612 85.9285H112.358V82.1824H108.612V85.9285Z" fill="#21201E"/>
<path d="M104.91 85.9285H108.611V82.1824H104.91V85.9285Z" fill="#F4EBA7"/>
<path d="M101.209 85.9285H104.91V82.1824H101.209V85.9285Z" fill="#F4EBA7"/>
<path d="M97.4632 85.9285H101.209V82.1824H97.4632V85.9285Z" fill="#F4EBA7"/>
<path d="M93.762 85.9285H97.463V82.1824H93.762V85.9285Z" fill="#F4EBA7"/>
<path d="M90.0613 85.9285H93.7623V82.1824H90.0613V85.9285Z" fill="#F4EBA7"/>
<path d="M86.3148 85.9285H90.0609V82.1824H86.3148V85.9285Z" fill="#FFFAD7"/>
<path d="M82.6141 85.9285H86.3151V82.1824H82.6141V85.9285Z" fill="#FFFAD7"/>
<path d="M78.9134 85.9285H82.6144V82.1824H78.9134V85.9285Z" fill="#FFFAD7"/>
<path d="M75.1668 85.9285H78.913V82.1824H75.1668V85.9285Z" fill="#FFFAD7"/>
<path d="M108.612 89.629H112.358V85.928H108.612V89.629Z" fill="#21201E"/>
<path d="M104.91 89.629H108.611V85.928H104.91V89.629Z" fill="#21201E"/>
<path d="M101.209 89.629H104.91V85.928H101.209V89.629Z" fill="#F4EBA7"/>
<path d="M97.4632 89.629H101.209V85.928H97.4632V89.629Z" fill="#F4EBA7"/>
<path d="M93.762 89.629H97.463V85.928H93.762V89.629Z" fill="#F4EBA7"/>
<path d="M90.0613 89.629H93.7623V85.928H90.0613V89.629Z" fill="#F4EBA7"/>
<path d="M86.3148 89.629H90.0609V85.928H86.3148V89.629Z" fill="#FFFAD7"/>
<path d="M82.6141 89.629H86.3151V85.928H82.6141V89.629Z" fill="#FFFAD7"/>
<path d="M78.9134 89.629H82.6144V85.928H78.9134V89.629Z" fill="#FFFAD7"/>
<path d="M75.1668 89.629H78.913V85.928H75.1668V89.629Z" fill="#FFFAD7"/>
<path d="M104.91 93.3302H108.611V89.6292H104.91V93.3302Z" fill="#21201E"/>
<path d="M101.209 93.3302H104.91V89.6292H101.209V93.3302Z" fill="#21201E"/>
<path d="M97.4632 93.3302H101.209V89.6292H97.4632V93.3302Z" fill="#F4EBA7"/>
<path d="M93.762 93.3302H97.463V89.6292H93.762V93.3302Z" fill="#F9C62C"/>
<path d="M90.0613 93.3302H93.7623V89.6292H90.0613V93.3302Z" fill="#FFFAD7"/>
<path d="M86.3148 93.3302H90.0609V89.6292H86.3148V93.3302Z" fill="#FFFAD7"/>
<path d="M82.6141 93.3302H86.3151V89.6292H82.6141V93.3302Z" fill="#FFFAD7"/>
<path d="M78.9134 93.3302H82.6144V89.6292H78.9134V93.3302Z" fill="#FFFAD7"/>
<path d="M75.1668 93.3302H78.913V89.6292H75.1668V93.3302Z" fill="#FFFAD7"/>
<path d="M104.91 97.0765H108.611V93.3303H104.91V97.0765Z" fill="#21201E"/>
<path d="M101.209 97.0765H104.91V93.3303H101.209V97.0765Z" fill="#F9C62C"/>
<path d="M97.4632 97.0765H101.209V93.3303H97.4632V97.0765Z" fill="#F9C62C"/>
<path d="M93.762 97.0765H97.463V93.3303H93.762V97.0765Z" fill="#F9C62C"/>
<path d="M90.0613 97.0765H93.7623V93.3303H90.0613V97.0765Z" fill="#FFFAD7"/>
<path d="M86.3148 97.0765H90.0609V93.3303H86.3148V97.0765Z" fill="#FFFAD7"/>
<path d="M82.6141 97.0765H86.3151V93.3303H82.6141V97.0765Z" fill="#FFFAD7"/>
<path d="M78.9134 97.0765H82.6144V93.3303H78.9134V97.0765Z" fill="#FFFAD7"/>
<path d="M75.1668 97.0765H78.913V93.3303H75.1668V97.0765Z" fill="#FFFAD7"/>
<path d="M108.612 100.778H112.358V97.0768H108.612V100.778Z" fill="#21201E"/>
<path d="M104.91 100.778H108.611V97.0768H104.91V100.778Z" fill="#21201E"/>
<path d="M101.209 100.778H104.91V97.0768H101.209V100.778Z" fill="#F9C62C"/>
<path d="M97.4632 100.778H101.209V97.0768H97.4632V100.778Z" fill="#F9C62C"/>
<path d="M93.762 100.778H97.463V97.0768H93.762V100.778Z" fill="#F9C62C"/>
<path d="M90.0613 100.778H93.7623V97.0768H90.0613V100.778Z" fill="#FFFAD7"/>
<path d="M86.4055 100.778H90.1065V97.0768H86.4055V100.778Z" fill="#FFFAD7"/>
<path d="M82.6141 100.778H86.4054V97.0768H82.6141V100.778Z" fill="#FFFAD7"/>
<path d="M78.9134 100.778H82.6144V97.0768H78.9134V100.778Z" fill="#FFFAD7"/>
<path d="M75.1668 100.778H78.913V97.0768H75.1668V100.778Z" fill="#F4EBA7"/>
<path d="M108.612 104.479H112.358V100.778H108.612V104.479Z" fill="#21201E"/>
<path d="M104.91 104.479H108.611V100.778H104.91V104.479Z" fill="#F9C62C"/>
<path d="M101.209 104.479H104.91V100.778H101.209V104.479Z" fill="#F9C62C"/>
<path d="M97.4632 104.479H101.209V100.778H97.4632V104.479Z" fill="#F9C62C"/>
<path d="M93.762 104.479H97.463V100.778H93.762V104.479Z" fill="#FFFAD7"/>
<path d="M90.0613 104.479H93.7623V100.778H90.0613V104.479Z" fill="#FFFAD7"/>
<path d="M86.4055 104.479H90.1065V100.778H86.4055V104.479Z" fill="#FFFAD7"/>
<path d="M82.6141 104.479H86.4054V100.778H82.6141V104.479Z" fill="#F4EBA7"/>
<path d="M78.9134 104.479H82.6144V100.778H78.9134V104.479Z" fill="#F4EBA7"/>
<path d="M75.1668 104.479H78.913V100.778H75.1668V104.479Z" fill="#F4EBA7"/>
<path d="M108.612 108.224H112.358V104.478H108.612V108.224Z" fill="#21201E"/>
<path d="M104.91 108.224H108.611V104.478H104.91V108.224Z" fill="#F9C62C"/>
<path d="M101.209 108.224H104.91V104.478H101.209V108.224Z" fill="#F9C62C"/>
<path d="M97.4632 108.224H101.209V104.478H97.4632V108.224Z" fill="#F9C62C"/>
<path d="M93.762 108.224H97.463V104.478H93.762V108.224Z" fill="#FFFAD7"/>
<path d="M90.0613 108.224H93.7623V104.478H90.0613V108.224Z" fill="#FFFAD7"/>
<path d="M86.4055 108.224H90.1065V104.478H86.4055V108.224Z" fill="#F4EBA7"/>
<path d="M82.6141 108.224H86.4054V104.478H82.6141V108.224Z" fill="#F4EBA7"/>
<path d="M78.9134 108.224H82.6144V104.478H78.9134V108.224Z" fill="#F4EBA7"/>
<path d="M75.1668 108.224H78.913V104.478H75.1668V108.224Z" fill="#F4EBA7"/>
<path d="M112.358 111.925H116.059V108.224H112.358V111.925Z" fill="#21201E"/>
<path d="M108.612 111.925H112.358V108.224H108.612V111.925Z" fill="#21201E"/>
<path d="M104.91 111.925H108.611V108.224H104.91V111.925Z" fill="#F9C62C"/>
<path d="M101.209 111.925H104.91V108.224H101.209V111.925Z" fill="#F9C62C"/>
<path d="M97.4632 111.925H101.209V108.224H97.4632V111.925Z" fill="#F9C62C"/>
<path d="M93.762 111.925H97.463V108.224H93.762V111.925Z" fill="#FFFAD7"/>
<path d="M90.1062 111.925H93.8524V108.224H90.1062V111.925Z" fill="#F4EBA7"/>
<path d="M86.4055 111.925H90.1065V108.224H86.4055V111.925Z" fill="#F4EBA7"/>
<path d="M82.6141 111.925H86.4054V108.224H82.6141V111.925Z" fill="#F4EBA7"/>
<path d="M78.9134 111.925H82.6144V108.224H78.9134V111.925Z" fill="#F4EBA7"/>
<path d="M75.1668 111.925H78.913V108.224H75.1668V111.925Z" fill="#21201E"/>
<path d="M112.358 115.627H116.059V111.926H112.358V115.627Z" fill="#21201E"/>
<path d="M108.612 115.627H112.358V111.926H108.612V115.627Z" fill="#21201E"/>
<path d="M104.91 115.627H108.611V111.926H104.91V115.627Z" fill="#F9C62C"/>
<path d="M101.209 115.627H104.91V111.926H101.209V115.627Z" fill="#F9C62C"/>
<path d="M97.5539 115.627H101.255V111.926H97.5539V115.627Z" fill="#F9C62C"/>
<path d="M93.8528 115.627H97.5538V111.926H93.8528V115.627Z" fill="#F4EBA7"/>
<path d="M90.1062 115.627H93.8524V111.926H90.1062V115.627Z" fill="#F4EBA7"/>
<path d="M86.4055 115.627H90.1065V111.926H86.4055V115.627Z" fill="#F4EBA7"/>
<path d="M82.6141 115.627H86.4054V111.926H82.6141V115.627Z" fill="#F4EBA7"/>
<path d="M78.9134 115.627H82.6144V111.926H78.9134V115.627Z" fill="#21201E"/>
<path d="M75.1668 115.627H78.913V111.926H75.1668V115.627Z" fill="#21201E"/>
<path d="M112.358 119.373H116.059V115.627H112.358V119.373Z" fill="#21201E"/>
<path d="M108.612 119.373H112.358V115.627H108.612V119.373Z" fill="#F9C62C"/>
<path d="M104.91 119.373H108.611V115.627H104.91V119.373Z" fill="#F9C62C"/>
<path d="M101.209 119.373H104.91V115.627H101.209V119.373Z" fill="#F4EBA7"/>
<path d="M97.5539 119.373H101.255V115.627H97.5539V119.373Z" fill="#F4EBA7"/>
<path d="M93.8528 119.373H97.5538V115.627H93.8528V119.373Z" fill="#F4EBA7"/>
<path d="M90.1062 119.373H93.8524V115.627H90.1062V119.373Z" fill="#F4EBA7"/>
<path d="M86.4055 119.373H90.1065V115.627H86.4055V119.373Z" fill="#21201E"/>
<path d="M82.6141 119.373H86.4054V115.627H82.6141V119.373Z" fill="#21201E"/>
<path d="M78.9134 119.373H82.6144V115.627H78.9134V119.373Z" fill="#21201E"/>
<path d="M116.059 123.074H119.76V119.373H116.059V123.074Z" fill="#21201E"/>
<path d="M112.358 123.074H116.059V119.373H112.358V123.074Z" fill="#21201E"/>
<path d="M108.612 123.074H112.358V119.373H108.612V123.074Z" fill="#F9C62C"/>
<path d="M104.91 123.074H108.611V119.373H104.91V123.074Z" fill="#F9C62C"/>
<path d="M101.209 123.074H104.91V119.373H101.209V123.074Z" fill="#F4EBA7"/>
<path d="M97.4632 123.074H101.209V119.373H97.4632V123.074Z" fill="#F4EBA7"/>
<path d="M93.8528 123.074H97.5538V119.373H93.8528V123.074Z" fill="#F4EBA7"/>
<path d="M90.1062 123.074H93.8524V119.373H90.1062V123.074Z" fill="#21201E"/>
<path d="M86.4055 123.074H90.1065V119.373H86.4055V123.074Z" fill="#21201E"/>
<path d="M116.059 126.774H119.76V123.073H116.059V126.774Z" fill="#21201E"/>
<path d="M112.358 126.774H116.059V123.073H112.358V126.774Z" fill="#F9C62C"/>
<path d="M108.612 126.774H112.358V123.073H108.612V126.774Z" fill="#F9C62C"/>
<path d="M104.91 126.774H108.611V123.073H104.91V126.774Z" fill="#F4EBA7"/>
<path d="M101.209 126.774H104.91V123.073H101.209V126.774Z" fill="#F4EBA7"/>
<path d="M97.4632 126.774H101.209V123.073H97.4632V126.774Z" fill="#21201E"/>
<path d="M93.8528 126.774H97.5538V123.073H93.8528V126.774Z" fill="#21201E"/>
<path d="M90.1062 126.774H93.8524V123.073H90.1062V126.774Z" fill="#21201E"/>
<path d="M116.059 130.521H119.76V126.775H116.059V130.521Z" fill="#21201E"/>
<path d="M112.358 130.521H116.059V126.775H112.358V130.521Z" fill="#F9C62C"/>
<path d="M108.612 130.521H112.358V126.775H108.612V130.521Z" fill="#F4EBA7"/>
<path d="M104.91 130.521H108.611V126.775H104.91V130.521Z" fill="#F4EBA7"/>
<path d="M101.209 130.521H104.91V126.775H101.209V130.521Z" fill="#21201E"/>
<path d="M97.5539 130.521H101.255V126.775H97.5539V130.521Z" fill="#21201E"/>
<path d="M119.76 134.222H123.506V130.521H119.76V134.222Z" fill="#21201E"/>
<path d="M116.059 134.222H119.76V130.521H116.059V134.222Z" fill="#21201E"/>
<path d="M112.358 134.222H116.059V130.521H112.358V134.222Z" fill="#F4EBA7"/>
<path d="M108.612 134.222H112.358V130.521H108.612V134.222Z" fill="#F4EBA7"/>
<path d="M104.91 134.222H108.611V130.521H104.91V134.222Z" fill="#21201E"/>
<path d="M101.209 134.222H104.91V130.521H101.209V134.222Z" fill="#21201E"/>
<path d="M119.76 137.923H123.506V134.222H119.76V137.923Z" fill="#21201E"/>
<path d="M116.059 137.923H119.76V134.222H116.059V137.923Z" fill="#F9C62C"/>
<path d="M112.358 137.923H116.059V134.222H112.358V137.923Z" fill="#21201E"/>
<path d="M108.612 137.923H112.358V134.222H108.612V137.923Z" fill="#21201E"/>
<path d="M104.91 137.923H108.611V134.222H104.91V137.923Z" fill="#21201E"/>
<path d="M119.76 141.669H123.506V137.923H119.76V141.669Z" fill="#21201E"/>
<path d="M116.059 141.669H119.76V137.923H116.059V141.669Z" fill="#21201E"/>
<path d="M112.358 141.669H116.059V137.923H112.358V141.669Z" fill="#21201E"/>
</svg>
