<svg width="29" height="23" viewBox="0 0 29 23" fill="none" xmlns="http://www.w3.org/2000/svg">
<path d="M28.9518 21.239V22.4564H27.7344V21.239H28.9518Z" fill="#21201E"/>
<path d="M28.9518 20.0132V21.2392L27.7344 21.2306V20.0132H28.9518Z" fill="#21201E"/>
<path d="M28.9518 18.7957V20.0216L27.7344 20.0131V18.7957H28.9518Z" fill="#21201E"/>
<path d="M28.9518 17.5869V18.7957H27.7344V17.5869H28.9518Z" fill="#21201E"/>
<path d="M28.9518 16.3696V17.587H27.7344V16.3696H28.9518Z" fill="#21201E"/>
<path d="M28.9518 15.1523V16.3697H27.7344V15.1523H28.9518Z" fill="#21201E"/>
<path d="M28.9518 13.9263V15.1522L27.7344 15.1437V13.9263H28.9518Z" fill="#21201E"/>
<path d="M28.9518 12.7173V13.9261H27.7344V12.7173H28.9518Z" fill="#21201E"/>
<path d="M28.9518 11.4915V12.7174L27.7344 12.7089V11.4915H28.9518Z" fill="#21201E"/>
<path d="M28.9518 10.2825V11.4913H27.7344V10.2825H28.9518Z" fill="#21201E"/>
<path d="M28.9518 9.06519V10.2826H27.7344V9.06519H28.9518Z" fill="#21201E"/>
<path d="M28.9518 7.83936V9.06532L27.7344 9.05675V7.83936H28.9518Z" fill="#21201E"/>
<path d="M28.9518 6.63037V7.83919H27.7344V6.63037H28.9518Z" fill="#21201E"/>
<path d="M28.9518 5.4043V6.63027L27.7344 6.62169V5.4043H28.9518Z" fill="#21201E"/>
<path d="M28.9518 4.1958V5.40462H27.7344V4.1958H28.9518Z" fill="#21201E"/>
<path d="M28.9518 2.97827V4.19567H27.7344V2.97827H28.9518Z" fill="#21201E"/>
<path d="M28.9518 1.7522V2.97816L27.7344 2.96959V1.7522H28.9518Z" fill="#21201E"/>
<path d="M27.7344 21.239V22.4564H26.517V21.239H27.7344Z" fill="#21201E"/>
<path d="M27.7344 20.0132V21.2392L26.517 21.2306V20.0132H27.7344Z" fill="#5FDBFD"/>
<path d="M27.7344 18.7957V20.0216L26.517 20.0131V18.7957H27.7344Z" fill="#21201E"/>
<path d="M27.7344 17.5869V18.7957H26.517V17.5869H27.7344Z" fill="white"/>
<path d="M27.7344 16.3696V17.587H26.517V16.3696H27.7344Z" fill="white"/>
<path d="M27.7344 15.1523V16.3697H26.517V15.1523H27.7344Z" fill="white"/>
<path d="M27.7344 13.9263V15.1522L26.517 15.1437V13.9263H27.7344Z" fill="white"/>
<path d="M27.7344 12.7173V13.9261H26.517V12.7173H27.7344Z" fill="white"/>
<path d="M27.7344 11.4915V12.7174L26.517 12.7089V11.4915H27.7344Z" fill="white"/>
<path d="M27.7344 10.2825V11.4913H26.517V10.2825H27.7344Z" fill="white"/>
<path d="M27.7344 9.06519V10.2826H26.517V9.06519H27.7344Z" fill="white"/>
<path d="M27.7344 7.83936V9.06532L26.517 9.05675V7.83936H27.7344Z" fill="white"/>
<path d="M27.7344 6.63037V7.83919H26.517V6.63037H27.7344Z" fill="white"/>
<path d="M27.7344 5.4043V6.63027L26.517 6.62169V5.4043H27.7344Z" fill="white"/>
<path d="M27.7344 4.1958V5.40462H26.517V4.1958H27.7344Z" fill="white"/>
<path d="M27.7344 2.97827V4.19567H26.517V2.97827H27.7344Z" fill="white"/>
<path d="M27.7344 1.7522V2.97816L26.517 2.96959V1.7522H27.7344Z" fill="white"/>
<path d="M27.7344 0.543457V1.75228H26.517V0.543457H27.7344Z" fill="#21201E"/>
<path d="M26.517 20.0132V21.2392L25.2996 21.2306V20.0132H26.517Z" fill="#21201E"/>
<path d="M26.517 18.7957V20.0216L25.2996 20.0131V18.7957H26.517Z" fill="#5FDBFD"/>
<path d="M26.517 17.5869V18.7957H25.2996V17.5869H26.517Z" fill="#21201E"/>
<path d="M26.517 16.3696V17.587H25.2996V16.3696H26.517Z" fill="white"/>
<path d="M26.517 15.1523V16.3697H25.2996V15.1523H26.517Z" fill="white"/>
<path d="M26.517 13.9263V15.1522L25.2996 15.1437V13.9263H26.517Z" fill="white"/>
<path d="M26.517 12.7173V13.9261H25.2996V12.7173H26.517Z" fill="white"/>
<path d="M26.517 11.4915V12.7174L25.2996 12.7089V11.4915H26.517Z" fill="white"/>
<path d="M26.517 10.2825V11.4913H25.2996V10.2825H26.517Z" fill="white"/>
<path d="M26.517 9.06519V10.2826H25.2996V9.06519H26.517Z" fill="white"/>
<path d="M26.517 7.83936V9.06532L25.2996 9.05675V7.83936H26.517Z" fill="white"/>
<path d="M26.517 6.63037V7.83919H25.2996V6.63037H26.517Z" fill="white"/>
<path d="M26.517 5.4043V6.63027L25.2996 6.62169V5.4043H26.517Z" fill="white"/>
<path d="M26.517 4.1958V5.40462H25.2996V4.1958H26.517Z" fill="white"/>
<path d="M26.517 2.97827V4.19567H25.2996V2.97827H26.517Z" fill="white"/>
<path d="M26.517 1.7522V2.97816L25.2996 2.96959V1.7522H26.517Z" fill="white"/>
<path d="M26.517 0.543457V1.75228H25.2996V0.543457H26.517Z" fill="#21201E"/>
<path d="M25.2996 20.0132V21.2392L24.0822 21.2306V20.0132H25.2996Z" fill="#21201E"/>
<path d="M25.2996 18.7957V20.0216L24.0822 20.0131V18.7957H25.2996Z" fill="#5FDBFD"/>
<path d="M25.2996 17.5869V18.7957H24.0822V17.5869H25.2996Z" fill="#21201E"/>
<path d="M25.2996 16.3696V17.587H24.0822V16.3696H25.2996Z" fill="white"/>
<path d="M25.2996 15.1523V16.3697H24.0822V15.1523H25.2996Z" fill="white"/>
<path d="M25.2996 13.9263V15.1522L24.0822 15.1437V13.9263H25.2996Z" fill="#21201E"/>
<path d="M25.2996 12.7173V13.9261H24.0822V12.7173H25.2996Z" fill="white"/>
<path d="M25.2996 11.4915V12.7174L24.0822 12.7089V11.4915H25.2996Z" fill="#21201E"/>
<path d="M25.2996 10.2825V11.4913H24.0822V10.2825H25.2996Z" fill="white"/>
<path d="M25.2996 9.06519V10.2826H24.0822V9.06519H25.2996Z" fill="#21201E"/>
<path d="M25.2996 7.83936V9.06532L24.0822 9.05675V7.83936H25.2996Z" fill="white"/>
<path d="M25.2996 6.63037V7.83919H24.0822V6.63037H25.2996Z" fill="#21201E"/>
<path d="M25.2996 5.4043V6.63027L24.0822 6.62169V5.4043H25.2996Z" fill="white"/>
<path d="M25.2996 4.1958V5.40462H24.0822V4.1958H25.2996Z" fill="#21201E"/>
<path d="M25.2996 2.97827V4.19567H24.0822V2.97827H25.2996Z" fill="white"/>
<path d="M25.2996 1.7522V2.97816L24.0822 2.96959V1.7522H25.2996Z" fill="white"/>
<path d="M25.2996 0.543457V1.75228H24.0822V0.543457H25.2996Z" fill="#21201E"/>
<path d="M24.0822 20.0132V21.2392L22.8648 21.2306V20.0132H24.0822Z" fill="#21201E"/>
<path d="M24.0822 18.7957V20.0216L22.8648 20.0131V18.7957H24.0822Z" fill="#5FDBFD"/>
<path d="M24.0822 17.5869V18.7957H22.8648V17.5869H24.0822Z" fill="#21201E"/>
<path d="M24.0822 16.3696V17.587H22.8648V16.3696H24.0822Z" fill="white"/>
<path d="M24.0822 15.1523V16.3697H22.8648V15.1523H24.0822Z" fill="white"/>
<path d="M24.0822 13.9263V15.1522L22.8648 15.1437V13.9263H24.0822Z" fill="#21201E"/>
<path d="M24.0822 12.7173V13.9261H22.8648V12.7173H24.0822Z" fill="white"/>
<path d="M24.0822 11.4915V12.7174L22.8648 12.7089V11.4915H24.0822Z" fill="#21201E"/>
<path d="M24.0822 10.2825V11.4913H22.8648V10.2825H24.0822Z" fill="white"/>
<path d="M24.0822 9.06519V10.2826H22.8648V9.06519H24.0822Z" fill="#21201E"/>
<path d="M24.0822 7.83936V9.06532L22.8648 9.05675V7.83936H24.0822Z" fill="white"/>
<path d="M24.0822 6.63037V7.83919H22.8648V6.63037H24.0822Z" fill="#21201E"/>
<path d="M24.0822 5.4043V6.63027L22.8648 6.62169V5.4043H24.0822Z" fill="white"/>
<path d="M24.0822 4.1958V5.40462H22.8648V4.1958H24.0822Z" fill="#21201E"/>
<path d="M24.0822 2.97827V4.19567H22.8648V2.97827H24.0822Z" fill="white"/>
<path d="M24.0822 1.7522V2.97816L22.8648 2.96959V1.7522H24.0822Z" fill="white"/>
<path d="M24.0822 0.543457V1.75228H22.8648V0.543457H24.0822Z" fill="#21201E"/>
<path d="M22.8649 20.0132V21.2392L21.6475 21.2306V20.0132H22.8649Z" fill="#21201E"/>
<path d="M22.8649 18.7957V20.0216L21.6475 20.0131V18.7957H22.8649Z" fill="#5FDBFD"/>
<path d="M22.8649 17.5869V18.7957H21.6475V17.5869H22.8649Z" fill="#21201E"/>
<path d="M22.8649 16.3696V17.587H21.6475V16.3696H22.8649Z" fill="white"/>
<path d="M22.8649 15.1523V16.3697H21.6475V15.1523H22.8649Z" fill="white"/>
<path d="M22.8649 13.9263V15.1522L21.6475 15.1437V13.9263H22.8649Z" fill="#21201E"/>
<path d="M22.8649 12.7173V13.9261H21.6475V12.7173H22.8649Z" fill="white"/>
<path d="M22.8649 11.4915V12.7174L21.6475 12.7089V11.4915H22.8649Z" fill="#21201E"/>
<path d="M22.8649 10.2825V11.4913H21.6475V10.2825H22.8649Z" fill="white"/>
<path d="M22.8649 9.06519V10.2826H21.6475V9.06519H22.8649Z" fill="#21201E"/>
<path d="M22.8649 7.83936V9.06532L21.6475 9.05675V7.83936H22.8649Z" fill="white"/>
<path d="M22.8649 6.63037V7.83919H21.6475V6.63037H22.8649Z" fill="#21201E"/>
<path d="M22.8649 5.4043V6.63027L21.6475 6.62169V5.4043H22.8649Z" fill="white"/>
<path d="M22.8649 4.1958V5.40462H21.6475V4.1958H22.8649Z" fill="#21201E"/>
<path d="M22.8649 2.97827V4.19567H21.6475V2.97827H22.8649Z" fill="white"/>
<path d="M22.8649 1.7522V2.97816L21.6475 2.96959V1.7522H22.8649Z" fill="white"/>
<path d="M22.8649 0.543457V1.75228H21.6475V0.543457H22.8649Z" fill="#21201E"/>
<path d="M21.6474 20.0132V21.2392L20.4301 21.2306V20.0132H21.6474Z" fill="#21201E"/>
<path d="M21.6474 18.7957V20.0216L20.4301 20.0131V18.7957H21.6474Z" fill="#5FDBFD"/>
<path d="M21.6474 17.5869V18.7957H20.4301V17.5869H21.6474Z" fill="#21201E"/>
<path d="M21.6474 16.3696V17.587H20.4301V16.3696H21.6474Z" fill="white"/>
<path d="M21.6474 15.1523V16.3697H20.4301V15.1523H21.6474Z" fill="white"/>
<path d="M21.6474 13.9263V15.1522L20.4301 15.1437V13.9263H21.6474Z" fill="#21201E"/>
<path d="M21.6474 12.7173V13.9261H20.4301V12.7173H21.6474Z" fill="white"/>
<path d="M21.6474 11.4915V12.7174L20.4301 12.7089V11.4915H21.6474Z" fill="#21201E"/>
<path d="M21.6474 10.2825V11.4913H20.4301V10.2825H21.6474Z" fill="white"/>
<path d="M21.6474 9.06519V10.2826H20.4301V9.06519H21.6474Z" fill="#21201E"/>
<path d="M21.6474 7.83936V9.06532L20.4301 9.05675V7.83936H21.6474Z" fill="white"/>
<path d="M21.6474 6.63037V7.83919H20.4301V6.63037H21.6474Z" fill="#21201E"/>
<path d="M21.6474 5.4043V6.63027L20.4301 6.62169V5.4043H21.6474Z" fill="white"/>
<path d="M21.6474 4.1958V5.40462H20.4301V4.1958H21.6474Z" fill="#21201E"/>
<path d="M21.6474 2.97827V4.19567H20.4301V2.97827H21.6474Z" fill="white"/>
<path d="M21.6474 1.7522V2.97816L20.4301 2.96959V1.7522H21.6474Z" fill="white"/>
<path d="M21.6474 0.543457V1.75228H20.4301V0.543457H21.6474Z" fill="#21201E"/>
<path d="M20.43 20.0132V21.2392L19.2126 21.2306V20.0132H20.43Z" fill="#21201E"/>
<path d="M20.43 18.7957V20.0216L19.2126 20.0131V18.7957H20.43Z" fill="#5FDBFD"/>
<path d="M20.43 17.5869V18.7957H19.2126V17.5869H20.43Z" fill="#21201E"/>
<path d="M20.43 16.3696V17.587H19.2126V16.3696H20.43Z" fill="white"/>
<path d="M20.43 15.1523V16.3697H19.2126V15.1523H20.43Z" fill="white"/>
<path d="M20.43 13.9263V15.1522L19.2126 15.1437V13.9263H20.43Z" fill="#21201E"/>
<path d="M20.43 12.7173V13.9261H19.2126V12.7173H20.43Z" fill="white"/>
<path d="M20.43 11.4915V12.7174L19.2126 12.7089V11.4915H20.43Z" fill="#21201E"/>
<path d="M20.43 10.2825V11.4913H19.2126V10.2825H20.43Z" fill="white"/>
<path d="M20.43 9.06519V10.2826H19.2126V9.06519H20.43Z" fill="#21201E"/>
<path d="M20.43 7.83936V9.06532L19.2126 9.05675V7.83936H20.43Z" fill="white"/>
<path d="M20.43 6.63037V7.83919H19.2126V6.63037H20.43Z" fill="#21201E"/>
<path d="M20.43 5.4043V6.63027L19.2126 6.62169V5.4043H20.43Z" fill="white"/>
<path d="M20.43 4.1958V5.40462H19.2126V4.1958H20.43Z" fill="#21201E"/>
<path d="M20.43 2.97827V4.19567H19.2126V2.97827H20.43Z" fill="white"/>
<path d="M20.43 1.7522V2.97816L19.2126 2.96959V1.7522H20.43Z" fill="white"/>
<path d="M20.43 0.543457V1.75228H19.2126V0.543457H20.43Z" fill="#21201E"/>
<path d="M19.2126 20.0132V21.2392L17.9952 21.2306V20.0132H19.2126Z" fill="#21201E"/>
<path d="M19.2126 18.7957V20.0216L17.9952 20.0131V18.7957H19.2126Z" fill="#5FDBFD"/>
<path d="M19.2126 17.5869V18.7957H17.9952V17.5869H19.2126Z" fill="#21201E"/>
<path d="M19.2126 16.3696V17.587H17.9952V16.3696H19.2126Z" fill="white"/>
<path d="M19.2126 15.1523V16.3697H17.9952V15.1523H19.2126Z" fill="white"/>
<path d="M19.2126 13.9263V15.1522L17.9952 15.1437V13.9263H19.2126Z" fill="#21201E"/>
<path d="M19.2126 12.7173V13.9261H17.9952V12.7173H19.2126Z" fill="white"/>
<path d="M19.2126 11.4915V12.7174L17.9952 12.7089V11.4915H19.2126Z" fill="#21201E"/>
<path d="M19.2126 10.2825V11.4913H17.9952V10.2825H19.2126Z" fill="white"/>
<path d="M19.2126 9.06519V10.2826H17.9952V9.06519H19.2126Z" fill="#21201E"/>
<path d="M19.2126 7.83936V9.06532L17.9952 9.05675V7.83936H19.2126Z" fill="white"/>
<path d="M19.2126 6.63037V7.83919H17.9952V6.63037H19.2126Z" fill="#21201E"/>
<path d="M19.2126 5.4043V6.63027L17.9952 6.62169V5.4043H19.2126Z" fill="white"/>
<path d="M19.2126 4.1958V5.40462H17.9952V4.1958H19.2126Z" fill="#21201E"/>
<path d="M19.2126 2.97827V4.19567H17.9952V2.97827H19.2126Z" fill="white"/>
<path d="M19.2126 1.7522V2.97816L17.9952 2.96959V1.7522H19.2126Z" fill="white"/>
<path d="M19.2126 0.543457V1.75228H17.9952V0.543457H19.2126Z" fill="#21201E"/>
<path d="M17.9953 20.0132V21.2392L16.7779 21.2306V20.0132H17.9953Z" fill="#21201E"/>
<path d="M17.9953 18.7957V20.0216L16.7779 20.0131V18.7957H17.9953Z" fill="#5FDBFD"/>
<path d="M17.9953 17.5869V18.7957H16.7779V17.5869H17.9953Z" fill="#21201E"/>
<path d="M17.9953 16.3696V17.587H16.7779V16.3696H17.9953Z" fill="white"/>
<path d="M17.9953 15.1523V16.3697H16.7779V15.1523H17.9953Z" fill="white"/>
<path d="M17.9953 13.9263V15.1522L16.7779 15.1437V13.9263H17.9953Z" fill="white"/>
<path d="M17.9953 12.7173V13.9261H16.7779V12.7173H17.9953Z" fill="white"/>
<path d="M17.9953 11.4915V12.7174L16.7779 12.7089V11.4915H17.9953Z" fill="white"/>
<path d="M17.9953 10.2825V11.4913H16.7779V10.2825H17.9953Z" fill="white"/>
<path d="M17.9953 9.06519V10.2826H16.7779V9.06519H17.9953Z" fill="white"/>
<path d="M17.9953 7.83936V9.06532L16.7779 9.05675V7.83936H17.9953Z" fill="white"/>
<path d="M17.9953 6.63037V7.83919H16.7779V6.63037H17.9953Z" fill="white"/>
<path d="M17.9953 5.4043V6.63027L16.7779 6.62169V5.4043H17.9953Z" fill="white"/>
<path d="M17.9953 4.1958V5.40462H16.7779V4.1958H17.9953Z" fill="white"/>
<path d="M17.9953 2.97827V4.19567H16.7779V2.97827H17.9953Z" fill="white"/>
<path d="M17.9953 1.7522V2.97816L16.7779 2.96959V1.7522H17.9953Z" fill="white"/>
<path d="M17.9953 0.543457V1.75228H16.7779V0.543457H17.9953Z" fill="#21201E"/>
<path d="M16.7779 21.239V22.4564H15.5605V21.239H16.7779Z" fill="#21201E"/>
<path d="M16.7779 20.0132V21.2392L15.5605 21.2306V20.0132H16.7779Z" fill="#5FDBFD"/>
<path d="M16.7779 18.7957V20.0216L15.5605 20.0131V18.7957H16.7779Z" fill="#21201E"/>
<path d="M16.7779 17.5869V18.7957H15.5605V17.5869H16.7779Z" fill="white"/>
<path d="M16.7779 16.3696V17.587H15.5605V16.3696H16.7779Z" fill="white"/>
<path d="M16.7779 15.1523V16.3697H15.5605V15.1523H16.7779Z" fill="white"/>
<path d="M16.7779 13.9263V15.1522L15.5605 15.1437V13.9263H16.7779Z" fill="white"/>
<path d="M16.7779 12.7173V13.9261H15.5605V12.7173H16.7779Z" fill="white"/>
<path d="M16.7779 11.4915V12.7174L15.5605 12.7089V11.4915H16.7779Z" fill="white"/>
<path d="M16.7779 10.2825V11.4913H15.5605V10.2825H16.7779Z" fill="white"/>
<path d="M16.7779 9.06519V10.2826H15.5605V9.06519H16.7779Z" fill="white"/>
<path d="M16.7779 7.83936V9.06532L15.5605 9.05675V7.83936H16.7779Z" fill="white"/>
<path d="M16.7779 6.63037V7.83919H15.5605V6.63037H16.7779Z" fill="white"/>
<path d="M16.7779 5.4043V6.63027L15.5605 6.62169V5.4043H16.7779Z" fill="white"/>
<path d="M16.7779 4.1958V5.40462H15.5605V4.1958H16.7779Z" fill="white"/>
<path d="M16.7779 2.97827V4.19567H15.5605V2.97827H16.7779Z" fill="white"/>
<path d="M16.7779 1.7522V2.97816L15.5605 2.96959V1.7522H16.7779Z" fill="#21201E"/>
<path d="M15.5605 21.239V22.4564H14.3431V21.239H15.5605Z" fill="#21201E"/>
<path d="M15.5605 20.0132V21.2392L14.3431 21.2306V20.0132H15.5605Z" fill="#21201E"/>
<path d="M15.5605 18.7957V20.0216L14.3431 20.0131V18.7957H15.5605Z" fill="#21201E"/>
<path d="M15.5605 17.5869V18.7957H14.3431V17.5869H15.5605Z" fill="#21201E"/>
<path d="M15.5605 16.3696V17.587H14.3431V16.3696H15.5605Z" fill="#21201E"/>
<path d="M15.5605 15.1523V16.3697H14.3431V15.1523H15.5605Z" fill="#21201E"/>
<path d="M15.5605 13.9263V15.1522L14.3431 15.1437V13.9263H15.5605Z" fill="#21201E"/>
<path d="M15.5605 12.7173V13.9261H14.3431V12.7173H15.5605Z" fill="#21201E"/>
<path d="M15.5605 11.4915V12.7174L14.3431 12.7089V11.4915H15.5605Z" fill="#21201E"/>
<path d="M15.5605 10.2825V11.4913H14.3431V10.2825H15.5605Z" fill="#21201E"/>
<path d="M15.5605 9.06519V10.2826H14.3431V9.06519H15.5605Z" fill="#21201E"/>
<path d="M15.5605 7.83936V9.06532L14.3431 9.05675V7.83936H15.5605Z" fill="#21201E"/>
<path d="M15.5605 6.63037V7.83919H14.3431V6.63037H15.5605Z" fill="#21201E"/>
<path d="M15.5605 5.4043V6.63027L14.3431 6.62169V5.4043H15.5605Z" fill="#21201E"/>
<path d="M15.5605 4.1958V5.40462H14.3431V4.1958H15.5605Z" fill="#21201E"/>
<path d="M15.5605 2.97827V4.19567H14.3431V2.97827H15.5605Z" fill="#21201E"/>
<path d="M14.3431 21.239V22.4564H13.1257V21.239H14.3431Z" fill="#21201E"/>
<path d="M14.3431 20.0132V21.2392L13.1257 21.2306V20.0132H14.3431Z" fill="#5FDBFD"/>
<path d="M14.3431 18.7957V20.0216L13.1257 20.0131V18.7957H14.3431Z" fill="#21201E"/>
<path d="M14.3431 17.5869V18.7957H13.1257V17.5869H14.3431Z" fill="white"/>
<path d="M14.3431 16.3696V17.587H13.1257V16.3696H14.3431Z" fill="white"/>
<path d="M14.3431 15.1523V16.3697H13.1257V15.1523H14.3431Z" fill="white"/>
<path d="M14.3431 13.9263V15.1522L13.1257 15.1437V13.9263H14.3431Z" fill="white"/>
<path d="M14.3431 12.7173V13.9261H13.1257V12.7173H14.3431Z" fill="white"/>
<path d="M14.3431 11.4915V12.7174L13.1257 12.7089V11.4915H14.3431Z" fill="white"/>
<path d="M14.3431 10.2825V11.4913H13.1257V10.2825H14.3431Z" fill="white"/>
<path d="M14.3431 9.06519V10.2826H13.1257V9.06519H14.3431Z" fill="white"/>
<path d="M14.3431 7.83936V9.06532L13.1257 9.05675V7.83936H14.3431Z" fill="white"/>
<path d="M14.3431 6.63037V7.83919H13.1257V6.63037H14.3431Z" fill="white"/>
<path d="M14.3431 5.4043V6.63027L13.1257 6.62169V5.4043H14.3431Z" fill="white"/>
<path d="M14.3431 4.1958V5.40462H13.1257V4.1958H14.3431Z" fill="white"/>
<path d="M14.3431 2.97827V4.19567H13.1257V2.97827H14.3431Z" fill="white"/>
<path d="M14.3431 1.7522V2.97816L13.1257 2.96959V1.7522H14.3431Z" fill="#21201E"/>
<path d="M13.1257 20.0132V21.2392L11.9083 21.2306V20.0132H13.1257Z" fill="#21201E"/>
<path d="M13.1257 18.7957V20.0216L11.9083 20.0131V18.7957H13.1257Z" fill="#5FDBFD"/>
<path d="M13.1257 17.5869V18.7957H11.9083V17.5869H13.1257Z" fill="#21201E"/>
<path d="M13.1257 16.3696V17.587H11.9083V16.3696H13.1257Z" fill="white"/>
<path d="M13.1257 15.1523V16.3697H11.9083V15.1523H13.1257Z" fill="white"/>
<path d="M13.1257 13.9263V15.1522L11.9083 15.1437V13.9263H13.1257Z" fill="white"/>
<path d="M13.1257 12.7173V13.9261H11.9083V12.7173H13.1257Z" fill="white"/>
<path d="M13.1257 11.4915V12.7174L11.9083 12.7089V11.4915H13.1257Z" fill="white"/>
<path d="M13.1257 10.2825V11.4913H11.9083V10.2825H13.1257Z" fill="white"/>
<path d="M13.1257 9.06519V10.2826H11.9083V9.06519H13.1257Z" fill="white"/>
<path d="M13.1257 7.83936V9.06532L11.9083 9.05675V7.83936H13.1257Z" fill="white"/>
<path d="M13.1257 6.63037V7.83919H11.9083V6.63037H13.1257Z" fill="white"/>
<path d="M13.1257 5.4043V6.63027L11.9083 6.62169V5.4043H13.1257Z" fill="white"/>
<path d="M13.1257 4.1958V5.40462H11.9083V4.1958H13.1257Z" fill="white"/>
<path d="M13.1257 2.97827V4.19567H11.9083V2.97827H13.1257Z" fill="white"/>
<path d="M13.1257 1.7522V2.97816L11.9083 2.96959V1.7522H13.1257Z" fill="white"/>
<path d="M13.1257 0.543457V1.75228H11.9083V0.543457H13.1257Z" fill="#21201E"/>
<path d="M11.9083 20.0132V21.2392L10.6909 21.2306V20.0132H11.9083Z" fill="#21201E"/>
<path d="M11.9083 18.7957V20.0216L10.6909 20.0131V18.7957H11.9083Z" fill="#5FDBFD"/>
<path d="M11.9083 17.5869V18.7957H10.6909V17.5869H11.9083Z" fill="#21201E"/>
<path d="M11.9083 16.3696V17.587H10.6909V16.3696H11.9083Z" fill="white"/>
<path d="M11.9083 15.1523V16.3697H10.6909V15.1523H11.9083Z" fill="white"/>
<path d="M11.9083 13.9263V15.1522L10.6909 15.1437V13.9263H11.9083Z" fill="#21201E"/>
<path d="M11.9083 12.7173V13.9261H10.6909V12.7173H11.9083Z" fill="white"/>
<path d="M11.9083 11.4915V12.7174L10.6909 12.7089V11.4915H11.9083Z" fill="#21201E"/>
<path d="M11.9083 10.2825V11.4913H10.6909V10.2825H11.9083Z" fill="white"/>
<path d="M11.9083 9.06519V10.2826H10.6909V9.06519H11.9083Z" fill="#21201E"/>
<path d="M11.9083 7.83936V9.06532L10.6909 9.05675V7.83936H11.9083Z" fill="white"/>
<path d="M11.9083 6.63037V7.83919H10.6909V6.63037H11.9083Z" fill="#21201E"/>
<path d="M11.9083 5.4043V6.63027L10.6909 6.62169V5.4043H11.9083Z" fill="white"/>
<path d="M11.9083 4.1958V5.40462H10.6909V4.1958H11.9083Z" fill="#21201E"/>
<path d="M11.9083 2.97827V4.19567H10.6909V2.97827H11.9083Z" fill="white"/>
<path d="M11.9083 1.7522V2.97816L10.6909 2.96959V1.7522H11.9083Z" fill="white"/>
<path d="M11.9083 0.543457V1.75228H10.6909V0.543457H11.9083Z" fill="#21201E"/>
<path d="M10.6909 20.0132V21.2392L9.47351 21.2306V20.0132H10.6909Z" fill="#21201E"/>
<path d="M10.6909 18.7957V20.0216L9.47351 20.0131V18.7957H10.6909Z" fill="#5FDBFD"/>
<path d="M10.6909 17.5869V18.7957H9.47351V17.5869H10.6909Z" fill="#21201E"/>
<path d="M10.6909 16.3696V17.587H9.47351V16.3696H10.6909Z" fill="white"/>
<path d="M10.6909 15.1523V16.3697H9.47351V15.1523H10.6909Z" fill="white"/>
<path d="M10.6909 13.9263V15.1522L9.47351 15.1437V13.9263H10.6909Z" fill="#21201E"/>
<path d="M10.6909 12.7173V13.9261H9.47351V12.7173H10.6909Z" fill="white"/>
<path d="M10.6909 11.4915V12.7174L9.47351 12.7089V11.4915H10.6909Z" fill="#21201E"/>
<path d="M10.6909 10.2825V11.4913H9.47351V10.2825H10.6909Z" fill="white"/>
<path d="M10.6909 9.06519V10.2826H9.47351V9.06519H10.6909Z" fill="#21201E"/>
<path d="M10.6909 7.83936V9.06532L9.47351 9.05675V7.83936H10.6909Z" fill="white"/>
<path d="M10.6909 6.63037V7.83919H9.47351V6.63037H10.6909Z" fill="#21201E"/>
<path d="M10.6909 5.4043V6.63027L9.47351 6.62169V5.4043H10.6909Z" fill="white"/>
<path d="M10.6909 4.1958V5.40462H9.47351V4.1958H10.6909Z" fill="#21201E"/>
<path d="M10.6909 2.97827V4.19567H9.47351V2.97827H10.6909Z" fill="white"/>
<path d="M10.6909 1.7522V2.97816L9.47351 2.96959V1.7522H10.6909Z" fill="white"/>
<path d="M10.6909 0.543457V1.75228H9.47351V0.543457H10.6909Z" fill="#21201E"/>
<path d="M9.4735 20.0132V21.2392L8.2561 21.2306V20.0132H9.4735Z" fill="#21201E"/>
<path d="M9.4735 18.7957V20.0216L8.2561 20.0131V18.7957H9.4735Z" fill="#5FDBFD"/>
<path d="M9.4735 17.5869V18.7957H8.2561V17.5869H9.4735Z" fill="#21201E"/>
<path d="M9.4735 16.3696V17.587H8.2561V16.3696H9.4735Z" fill="white"/>
<path d="M9.4735 15.1523V16.3697H8.2561V15.1523H9.4735Z" fill="white"/>
<path d="M9.4735 13.9263V15.1522L8.2561 15.1437V13.9263H9.4735Z" fill="#21201E"/>
<path d="M9.4735 12.7173V13.9261H8.2561V12.7173H9.4735Z" fill="white"/>
<path d="M9.4735 11.4915V12.7174L8.2561 12.7089V11.4915H9.4735Z" fill="#21201E"/>
<path d="M9.4735 10.2825V11.4913H8.2561V10.2825H9.4735Z" fill="white"/>
<path d="M9.4735 9.06519V10.2826H8.2561V9.06519H9.4735Z" fill="#21201E"/>
<path d="M9.4735 7.83936V9.06532L8.2561 9.05675V7.83936H9.4735Z" fill="white"/>
<path d="M9.4735 6.63037V7.83919H8.2561V6.63037H9.4735Z" fill="#21201E"/>
<path d="M9.4735 5.4043V6.63027L8.2561 6.62169V5.4043H9.4735Z" fill="white"/>
<path d="M9.4735 4.1958V5.40462H8.2561V4.1958H9.4735Z" fill="#21201E"/>
<path d="M9.4735 2.97827V4.19567H8.2561V2.97827H9.4735Z" fill="white"/>
<path d="M9.4735 1.7522V2.97816L8.2561 2.96959V1.7522H9.4735Z" fill="white"/>
<path d="M9.4735 0.543457V1.75228H8.2561V0.543457H9.4735Z" fill="#21201E"/>
<path d="M8.25615 20.0132V21.2392L7.03876 21.2306V20.0132H8.25615Z" fill="#21201E"/>
<path d="M8.25615 18.7957V20.0216L7.03876 20.0131V18.7957H8.25615Z" fill="#5FDBFD"/>
<path d="M8.25615 17.5869V18.7957H7.03876V17.5869H8.25615Z" fill="#21201E"/>
<path d="M8.25615 16.3696V17.587H7.03876V16.3696H8.25615Z" fill="white"/>
<path d="M8.25615 15.1523V16.3697H7.03876V15.1523H8.25615Z" fill="white"/>
<path d="M8.25615 13.9263V15.1522L7.03876 15.1437V13.9263H8.25615Z" fill="#21201E"/>
<path d="M8.25615 12.7173V13.9261H7.03876V12.7173H8.25615Z" fill="white"/>
<path d="M8.25615 11.4915V12.7174L7.03876 12.7089V11.4915H8.25615Z" fill="#21201E"/>
<path d="M8.25615 10.2825V11.4913H7.03876V10.2825H8.25615Z" fill="white"/>
<path d="M8.25615 9.06519V10.2826H7.03876V9.06519H8.25615Z" fill="#21201E"/>
<path d="M8.25615 7.83936V9.06532L7.03876 9.05675V7.83936H8.25615Z" fill="white"/>
<path d="M8.25615 6.63037V7.83919H7.03876V6.63037H8.25615Z" fill="#21201E"/>
<path d="M8.25615 5.4043V6.63027L7.03876 6.62169V5.4043H8.25615Z" fill="white"/>
<path d="M8.25615 4.1958V5.40462H7.03876V4.1958H8.25615Z" fill="#21201E"/>
<path d="M8.25615 2.97827V4.19567H7.03876V2.97827H8.25615Z" fill="white"/>
<path d="M8.25615 1.7522V2.97816L7.03876 2.96959V1.7522H8.25615Z" fill="white"/>
<path d="M8.25615 0.543457V1.75228H7.03876V0.543457H8.25615Z" fill="#21201E"/>
<path d="M7.03874 20.0132V21.2392L5.82135 21.2306V20.0132H7.03874Z" fill="#21201E"/>
<path d="M7.03874 18.7957V20.0216L5.82135 20.0131V18.7957H7.03874Z" fill="#5FDBFD"/>
<path d="M7.03874 17.5869V18.7957H5.82135V17.5869H7.03874Z" fill="#21201E"/>
<path d="M7.03874 16.3696V17.587H5.82135V16.3696H7.03874Z" fill="white"/>
<path d="M7.03874 15.1523V16.3697H5.82135V15.1523H7.03874Z" fill="white"/>
<path d="M7.03874 13.9263V15.1522L5.82135 15.1437V13.9263H7.03874Z" fill="#21201E"/>
<path d="M7.03874 12.7173V13.9261H5.82135V12.7173H7.03874Z" fill="white"/>
<path d="M7.03874 11.4915V12.7174L5.82135 12.7089V11.4915H7.03874Z" fill="#21201E"/>
<path d="M7.03874 10.2825V11.4913H5.82135V10.2825H7.03874Z" fill="white"/>
<path d="M7.03874 9.06519V10.2826H5.82135V9.06519H7.03874Z" fill="#21201E"/>
<path d="M7.03874 7.83936V9.06532L5.82135 9.05675V7.83936H7.03874Z" fill="white"/>
<path d="M7.03874 6.63037V7.83919H5.82135V6.63037H7.03874Z" fill="#21201E"/>
<path d="M7.03874 5.4043V6.63027L5.82135 6.62169V5.4043H7.03874Z" fill="white"/>
<path d="M7.03874 4.1958V5.40462H5.82135V4.1958H7.03874Z" fill="#21201E"/>
<path d="M7.03874 2.97827V4.19567H5.82135V2.97827H7.03874Z" fill="white"/>
<path d="M7.03874 1.7522V2.97816L5.82135 2.96959V1.7522H7.03874Z" fill="white"/>
<path d="M7.03874 0.543457V1.75228H5.82135V0.543457H7.03874Z" fill="#21201E"/>
<path d="M5.82134 20.0132V21.2392L4.60394 21.2306V20.0132H5.82134Z" fill="#21201E"/>
<path d="M5.82134 18.7957V20.0216L4.60394 20.0131V18.7957H5.82134Z" fill="#5FDBFD"/>
<path d="M5.82134 17.5869V18.7957H4.60394V17.5869H5.82134Z" fill="#21201E"/>
<path d="M5.82134 16.3696V17.587H4.60394V16.3696H5.82134Z" fill="white"/>
<path d="M5.82134 15.1523V16.3697H4.60394V15.1523H5.82134Z" fill="white"/>
<path d="M5.82134 13.9263V15.1522L4.60394 15.1437V13.9263H5.82134Z" fill="#21201E"/>
<path d="M5.82134 12.7173V13.9261H4.60394V12.7173H5.82134Z" fill="white"/>
<path d="M5.82134 11.4915V12.7174L4.60394 12.7089V11.4915H5.82134Z" fill="#21201E"/>
<path d="M5.82134 10.2825V11.4913H4.60394V10.2825H5.82134Z" fill="white"/>
<path d="M5.82134 9.06519V10.2826H4.60394V9.06519H5.82134Z" fill="#21201E"/>
<path d="M5.82134 7.83936V9.06532L4.60394 9.05675V7.83936H5.82134Z" fill="white"/>
<path d="M5.82134 6.63037V7.83919H4.60394V6.63037H5.82134Z" fill="#21201E"/>
<path d="M5.82134 5.4043V6.63027L4.60394 6.62169V5.4043H5.82134Z" fill="white"/>
<path d="M5.82134 4.1958V5.40462H4.60394V4.1958H5.82134Z" fill="#21201E"/>
<path d="M5.82134 2.97827V4.19567H4.60394V2.97827H5.82134Z" fill="white"/>
<path d="M5.82134 1.7522V2.97816L4.60394 2.96959V1.7522H5.82134Z" fill="white"/>
<path d="M5.82134 0.543457V1.75228H4.60394V0.543457H5.82134Z" fill="#21201E"/>
<path d="M4.60393 20.0132V21.2392L3.38654 21.2306V20.0132H4.60393Z" fill="#21201E"/>
<path d="M4.60393 18.7957V20.0216L3.38654 20.0131V18.7957H4.60393Z" fill="#5FDBFD"/>
<path d="M4.60393 17.5869V18.7957H3.38654V17.5869H4.60393Z" fill="#21201E"/>
<path d="M4.60393 16.3696V17.587H3.38654V16.3696H4.60393Z" fill="white"/>
<path d="M4.60393 15.1523V16.3697H3.38654V15.1523H4.60393Z" fill="white"/>
<path d="M4.60393 13.9263V15.1522L3.38654 15.1437V13.9263H4.60393Z" fill="#21201E"/>
<path d="M4.60393 12.7173V13.9261H3.38654V12.7173H4.60393Z" fill="white"/>
<path d="M4.60393 11.4915V12.7174L3.38654 12.7089V11.4915H4.60393Z" fill="#21201E"/>
<path d="M4.60393 10.2825V11.4913H3.38654V10.2825H4.60393Z" fill="white"/>
<path d="M4.60393 9.06519V10.2826H3.38654V9.06519H4.60393Z" fill="#21201E"/>
<path d="M4.60393 7.83936V9.06532L3.38654 9.05675V7.83936H4.60393Z" fill="white"/>
<path d="M4.60393 6.63037V7.83919H3.38654V6.63037H4.60393Z" fill="#21201E"/>
<path d="M4.60393 5.4043V6.63027L3.38654 6.62169V5.4043H4.60393Z" fill="white"/>
<path d="M4.60393 4.1958V5.40462H3.38654V4.1958H4.60393Z" fill="#21201E"/>
<path d="M4.60393 2.97827V4.19567H3.38654V2.97827H4.60393Z" fill="white"/>
<path d="M4.60393 1.7522V2.97816L3.38654 2.96959V1.7522H4.60393Z" fill="white"/>
<path d="M4.60393 0.543457V1.75228H3.38654V0.543457H4.60393Z" fill="#21201E"/>
<path d="M3.38658 21.239V22.4564H2.16919V21.239H3.38658Z" fill="#21201E"/>
<path d="M3.38658 20.0132V21.2392L2.16919 21.2306V20.0132H3.38658Z" fill="#5FDBFD"/>
<path d="M3.38658 18.7957V20.0216L2.16919 20.0131V18.7957H3.38658Z" fill="#21201E"/>
<path d="M3.38658 17.5869V18.7957H2.16919V17.5869H3.38658Z" fill="white"/>
<path d="M3.38658 16.3696V17.587H2.16919V16.3696H3.38658Z" fill="white"/>
<path d="M3.38658 15.1523V16.3697H2.16919V15.1523H3.38658Z" fill="white"/>
<path d="M3.38658 13.9263V15.1522L2.16919 15.1437V13.9263H3.38658Z" fill="white"/>
<path d="M3.38658 12.7173V13.9261H2.16919V12.7173H3.38658Z" fill="white"/>
<path d="M3.38658 11.4915V12.7174L2.16919 12.7089V11.4915H3.38658Z" fill="white"/>
<path d="M3.38658 10.2825V11.4913H2.16919V10.2825H3.38658Z" fill="white"/>
<path d="M3.38658 9.06519V10.2826H2.16919V9.06519H3.38658Z" fill="white"/>
<path d="M3.38658 7.83936V9.06532L2.16919 9.05675V7.83936H3.38658Z" fill="white"/>
<path d="M3.38658 6.63037V7.83919H2.16919V6.63037H3.38658Z" fill="white"/>
<path d="M3.38658 5.4043V6.63027L2.16919 6.62169V5.4043H3.38658Z" fill="white"/>
<path d="M3.38658 4.1958V5.40462H2.16919V4.1958H3.38658Z" fill="white"/>
<path d="M3.38658 2.97827V4.19567H2.16919V2.97827H3.38658Z" fill="white"/>
<path d="M3.38658 1.7522V2.97816L2.16919 2.96959V1.7522H3.38658Z" fill="white"/>
<path d="M3.38658 0.543457V1.75228H2.16919V0.543457H3.38658Z" fill="#21201E"/>
<path d="M2.16918 21.239V22.4564H0.951782V21.239H2.16918Z" fill="#21201E"/>
<path d="M2.16918 20.0132V21.2392L0.951782 21.2306V20.0132H2.16918Z" fill="#21201E"/>
<path d="M2.16918 18.7957V20.0216L0.951782 20.0131V18.7957H2.16918Z" fill="#21201E"/>
<path d="M2.16918 17.5869V18.7957H0.951782V17.5869H2.16918Z" fill="#21201E"/>
<path d="M2.16918 16.3696V17.587H0.951782V16.3696H2.16918Z" fill="#21201E"/>
<path d="M2.16918 15.1523V16.3697H0.951782V15.1523H2.16918Z" fill="#21201E"/>
<path d="M2.16918 13.9263V15.1522L0.951782 15.1437V13.9263H2.16918Z" fill="#21201E"/>
<path d="M2.16918 12.7173V13.9261H0.951782V12.7173H2.16918Z" fill="#21201E"/>
<path d="M2.16918 11.4915V12.7174L0.951782 12.7089V11.4915H2.16918Z" fill="#21201E"/>
<path d="M2.16918 10.2825V11.4913H0.951782V10.2825H2.16918Z" fill="#21201E"/>
<path d="M2.16918 9.06519V10.2826H0.951782V9.06519H2.16918Z" fill="#21201E"/>
<path d="M2.16918 7.83936V9.06532L0.951782 9.05675V7.83936H2.16918Z" fill="#21201E"/>
<path d="M2.16918 6.63037V7.83919H0.951782V6.63037H2.16918Z" fill="#21201E"/>
<path d="M2.16918 5.4043V6.63027L0.951782 6.62169V5.4043H2.16918Z" fill="#21201E"/>
<path d="M2.16918 4.1958V5.40462H0.951782V4.1958H2.16918Z" fill="#21201E"/>
<path d="M2.16918 2.97827V4.19567H0.951782V2.97827H2.16918Z" fill="#21201E"/>
<path d="M2.16918 1.7522V2.97816L0.951782 2.96959V1.7522H2.16918Z" fill="#21201E"/>
<path d="M18.4893 7.58458V6.36548H20.0759L18.4893 7.58458Z" fill="#F9C62C"/>
<path d="M21.7243 7.58458L20.1376 6.36548H21.7243V7.58458Z" fill="#F4EBA7"/>
<path d="M20.1376 3.1274H18.4893V1.479H20.1376V3.1274Z" fill="#F9C62C"/>
<path d="M21.786 3.1274H20.1376V1.479H21.786V3.1274Z" fill="#F4EBA7"/>
<path d="M20.1376 4.77559H18.4893V3.1272H20.1376V4.77559Z" fill="#F9C62C"/>
<path d="M21.786 4.77559H20.1376V3.1272H21.786V4.77559Z" fill="#F4EBA7"/>
<path d="M20.1376 6.41521H18.4893V4.77563H20.1376V6.41521Z" fill="#F9C62C"/>
<path d="M21.786 6.41521H20.1376V4.77563H21.786V6.41521Z" fill="#F4EBA7"/>
<path d="M18.4892 1.62598V6.55473L17.7866 6.52027V1.62598H18.4892Z" fill="#21201E"/>
<path d="M22.3988 1.479V7.15077L21.6962 7.11111V1.479H22.3988Z" fill="#21201E"/>
<path d="M18.4892 4.05664V4.75925L17.7866 4.75434V4.05664H18.4892Z" fill="#21201E"/>
<path d="M18.4892 2.84326V3.54587L17.7866 3.54096V2.84326H18.4892Z" fill="#21201E"/>
<path d="M18.4892 5.27393V5.97654L17.7866 5.97163V5.27393H18.4892Z" fill="#21201E"/>
<path d="M18.4892 6.49585V7.19846L17.7866 7.19355V6.49585H18.4892Z" fill="#21201E"/>
<path d="M18.9202 7.15063V7.85325L18.2176 7.84834V7.15063H18.9202Z" fill="#21201E"/>
<path d="M21.9519 7.15063V7.85325L21.2493 7.84834V7.15063H21.9519Z" fill="#21201E"/>
<path d="M20.7463 6.15747V7.38344L19.5289 7.37487V6.15747H20.7463Z" fill="#21201E"/>
<path d="M20.1376 6.62744V7.85341L18.9202 7.84484V6.62744H20.1376Z" fill="#21201E"/>
<path d="M21.355 6.62744V7.85341L20.1376 7.84484V6.62744H21.355Z" fill="#21201E"/>
</svg>
