<svg width="30" height="32" viewBox="0 0 30 32" fill="none" xmlns="http://www.w3.org/2000/svg">
<path d="M17.026 2.85426L17.8368 1.90286L18.7888 2.71413L17.978 3.66553L17.026 2.85426Z" fill="#21201E"/>
<path d="M16.2152 3.80568L17.026 2.85428L17.978 3.66555L17.1672 4.61694L16.2152 3.80568Z" fill="#21201E"/>
<path d="M15.4044 4.75709L16.2152 3.80569L17.1672 4.61696L16.3564 5.56836L15.4044 4.75709Z" fill="#21201E"/>
<path d="M14.5938 5.70851L15.4045 4.75711L16.3565 5.56837L15.5458 6.51978L14.5938 5.70851Z" fill="#21201E"/>
<path d="M13.783 6.65968L14.5938 5.70828L15.5457 6.51955L14.735 7.47095L13.783 6.65968Z" fill="#21201E"/>
<path d="M12.9722 7.61134L13.783 6.65994L14.735 7.47121L13.9242 8.42261L12.9722 7.61134Z" fill="#21201E"/>
<path d="M12.1614 8.56251L12.9722 7.61111L13.9242 8.42238L13.1134 9.37378L12.1614 8.56251Z" fill="#21201E"/>
<path d="M11.3506 9.51393L12.1614 8.56253L13.1134 9.37379L12.3026 10.3252L11.3506 9.51393Z" fill="#21201E"/>
<path d="M10.5398 10.4656L11.3506 9.51419L12.3026 10.3255L11.4918 11.2769L10.5398 10.4656Z" fill="#21201E"/>
<path d="M9.72916 11.4168L10.5399 10.4654L11.4919 11.2766L10.6812 12.228L9.72916 11.4168Z" fill="#21201E"/>
<path d="M8.91849 12.3684L9.72925 11.417L10.6812 12.2283L9.87048 13.1797L8.91849 12.3684Z" fill="#21201E"/>
<path d="M8.1077 13.3196L8.91845 12.3682L9.87045 13.1795L9.05969 14.1309L8.1077 13.3196Z" fill="#21201E"/>
<path d="M7.29691 14.271L8.10767 13.3196L9.05966 14.1309L8.2489 15.0823L7.29691 14.271Z" fill="#21201E"/>
<path d="M6.48611 15.2224L7.29688 14.271L8.24887 15.0823L7.43811 16.0337L6.48611 15.2224Z" fill="#21201E"/>
<path d="M5.67545 16.1738L6.48621 15.2224L7.4382 16.0337L6.62744 16.9851L5.67545 16.1738Z" fill="#21201E"/>
<path d="M19.5995 1.76271L20.4103 0.811306L21.3623 1.62257L20.5515 2.57397L19.5995 1.76271Z" fill="#21201E"/>
<path d="M18.7887 2.71412L19.5995 1.76272L20.5515 2.57399L19.7407 3.52539L18.7887 2.71412Z" fill="#21201E"/>
<path d="M17.9779 3.66554L18.7887 2.71414L19.7407 3.52541L18.9299 4.47681L17.9779 3.66554Z" fill="#21201E"/>
<path d="M17.1671 4.61696L17.9779 3.66556L18.9299 4.47683L18.1191 5.42822L17.1671 4.61696Z" fill="#00B590"/>
<path d="M16.3565 5.56837L17.1672 4.61697L18.1192 5.42824L17.3085 6.37964L16.3565 5.56837Z" fill="#00B590"/>
<path d="M15.5457 6.51979L16.3564 5.56839L17.3084 6.37965L16.4977 7.33105L15.5457 6.51979Z" fill="#00B590"/>
<path d="M14.7349 7.47096L15.5457 6.51956L16.4977 7.33083L15.6869 8.28223L14.7349 7.47096Z" fill="#00B590"/>
<path d="M13.9242 8.42238L14.735 7.47097L15.687 8.28224L14.8762 9.23364L13.9242 8.42238Z" fill="#00B590"/>
<path d="M13.1134 9.37404L13.9242 8.42264L14.8762 9.23391L14.0654 10.1853L13.1134 9.37404Z" fill="#00B590"/>
<path d="M12.3026 10.3252L13.1134 9.37381L14.0654 10.1851L13.2546 11.1365L12.3026 10.3252Z" fill="#00B590"/>
<path d="M11.4919 11.2766L12.3026 10.3252L13.2546 11.1365L12.4438 12.0879L11.4919 11.2766Z" fill="#00B590"/>
<path d="M10.6811 12.228L11.4918 11.2766L12.4438 12.0879L11.6331 13.0393L10.6811 12.228Z" fill="#00B590"/>
<path d="M9.87039 13.1795L10.6812 12.2281L11.6331 13.0393L10.8224 13.9907L9.87039 13.1795Z" fill="#00B590"/>
<path d="M9.0596 14.1309L9.87036 13.1795L10.8224 13.9907L10.0116 14.9421L9.0596 14.1309Z" fill="#00B590"/>
<path d="M8.24881 15.0823L9.05957 14.1309L10.0116 14.9422L9.20081 15.8936L8.24881 15.0823Z" fill="#00B590"/>
<path d="M7.43814 16.0337L8.2489 15.0823L9.2009 15.8936L8.39014 16.845L7.43814 16.0337Z" fill="#21201E"/>
<path d="M6.62735 16.9851L7.43811 16.0337L8.39011 16.845L7.57935 17.7964L6.62735 16.9851Z" fill="white"/>
<path d="M5.81656 17.9363L6.62732 16.9849L7.57932 17.7962L6.76855 18.7476L5.81656 17.9363Z" fill="#21201E"/>
<path d="M20.5515 2.57399L21.3623 1.62259L22.3143 2.43385L21.5035 3.38525L20.5515 2.57399Z" fill="#21201E"/>
<path d="M19.7408 3.52541L20.5515 2.574L21.5035 3.38527L20.6927 4.33667L19.7408 3.52541Z" fill="#F9C62C"/>
<path d="M18.93 4.47682L19.7407 3.52542L20.6927 4.33668L19.882 5.28809L18.93 4.47682Z" fill="#21201E"/>
<path d="M18.1192 5.42824L18.9299 4.47684L19.8819 5.2881L19.0712 6.2395L18.1192 5.42824Z" fill="#00B590"/>
<path d="M17.3085 6.37941L18.1193 5.42801L19.0713 6.23927L18.2605 7.19067L17.3085 6.37941Z" fill="#00B590"/>
<path d="M16.4977 7.33107L17.3085 6.37967L18.2605 7.19093L17.4497 8.14233L16.4977 7.33107Z" fill="#00B590"/>
<path d="M15.6869 8.28249L16.4977 7.33108L17.4497 8.14235L16.6389 9.09375L15.6869 8.28249Z" fill="#00B590"/>
<path d="M14.8761 9.23366L15.6869 8.28226L16.6389 9.09352L15.8281 10.0449L14.8761 9.23366Z" fill="#00B590"/>
<path d="M14.0653 10.1853L14.8761 9.23392L15.8281 10.0452L15.0173 10.9966L14.0653 10.1853Z" fill="#00B590"/>
<path d="M13.2548 11.1365L14.0656 10.1851L15.0175 10.9964L14.2068 11.9478L13.2548 11.1365Z" fill="#00B590"/>
<path d="M12.444 12.0879L13.2548 11.1365L14.2068 11.9478L13.396 12.8992L12.444 12.0879Z" fill="#00B590"/>
<path d="M11.6332 13.0396L12.444 12.0882L13.396 12.8994L12.5852 13.8508L11.6332 13.0396Z" fill="#00B590"/>
<path d="M10.8224 13.9907L11.6332 13.0393L12.5852 13.8506L11.7744 14.802L10.8224 13.9907Z" fill="#00B590"/>
<path d="M10.0116 14.9422L10.8224 13.9908L11.7744 14.802L10.9636 15.7534L10.0116 14.9422Z" fill="#00B590"/>
<path d="M9.20084 15.8936L10.0116 14.9422L10.9636 15.7534L10.1528 16.7048L9.20084 15.8936Z" fill="#00B590"/>
<path d="M8.39017 16.845L9.20093 15.8936L10.1529 16.7048L9.34216 17.6562L8.39017 16.845Z" fill="#21201E"/>
<path d="M7.57938 17.7964L8.39014 16.845L9.34213 17.6563L8.53137 18.6077L7.57938 17.7964Z" fill="white"/>
<path d="M6.76859 18.7478L7.57935 17.7964L8.53134 18.6077L7.72058 19.5591L6.76859 18.7478Z" fill="white"/>
<path d="M5.9578 19.699L6.76856 18.7476L7.72055 19.5589L6.90979 20.5103L5.9578 19.699Z" fill="#21201E"/>
<path d="M5.14701 20.6507L5.95777 19.6992L6.90976 20.5105L6.099 21.4619L5.14701 20.6507Z" fill="#21201E"/>
<path d="M21.5036 3.38527L22.3143 2.43386L23.2663 3.24513L22.4556 4.19653L21.5036 3.38527Z" fill="#21201E"/>
<path d="M20.6927 4.33668L21.5034 3.38528L22.4554 4.19655L21.6447 5.14795L20.6927 4.33668Z" fill="#F9C62C"/>
<path d="M19.882 5.28785L20.6927 4.33645L21.6447 5.14772L20.834 6.09912L19.882 5.28785Z" fill="#21201E"/>
<path d="M19.0712 6.23951L19.882 5.28812L20.834 6.09938L20.0232 7.05078L19.0712 6.23951Z" fill="#21201E"/>
<path d="M18.2605 7.19093L19.0713 6.23953L20.0233 7.0508L19.2125 8.0022L18.2605 7.19093Z" fill="#21201E"/>
<path d="M17.4497 8.1421L18.2605 7.1907L19.2125 8.00197L18.4017 8.95337L17.4497 8.1421Z" fill="#21201E"/>
<path d="M16.6389 9.09352L17.4497 8.14212L18.4017 8.95338L17.5909 9.90479L16.6389 9.09352Z" fill="#21201E"/>
<path d="M15.8282 10.0449L16.6389 9.09353L17.5909 9.9048L16.7802 10.8562L15.8282 10.0449Z" fill="#21201E"/>
<path d="M15.0174 10.9963L15.8281 10.045L16.7801 10.8562L15.9694 11.8076L15.0174 10.9963Z" fill="#21201E"/>
<path d="M14.2067 11.948L15.0175 10.9966L15.9695 11.8079L15.1587 12.7593L14.2067 11.948Z" fill="#21201E"/>
<path d="M13.3959 12.8992L14.2067 11.9478L15.1587 12.759L14.3479 13.7104L13.3959 12.8992Z" fill="#21201E"/>
<path d="M12.5851 13.8506L13.3959 12.8992L14.3479 13.7105L13.5371 14.6619L12.5851 13.8506Z" fill="#21201E"/>
<path d="M11.7744 14.802L12.5852 13.8506L13.5372 14.6619L12.7264 15.6133L11.7744 14.802Z" fill="#21201E"/>
<path d="M10.9635 15.7534L11.7743 14.802L12.7263 15.6133L11.9155 16.5647L10.9635 15.7534Z" fill="#21201E"/>
<path d="M10.1529 16.7048L10.9636 15.7534L11.9156 16.5647L11.1049 17.5161L10.1529 16.7048Z" fill="#21201E"/>
<path d="M9.34207 17.6563L10.1528 16.7049L11.1048 17.5161L10.2941 18.4675L9.34207 17.6563Z" fill="#21201E"/>
<path d="M8.53128 18.6077L9.34204 17.6563L10.294 18.4675L9.48328 19.4189L8.53128 18.6077Z" fill="white"/>
<path d="M7.72061 19.5591L8.53137 18.6077L9.48337 19.419L8.67261 20.3704L7.72061 19.5591Z" fill="white"/>
<path d="M6.90982 20.5105L7.72058 19.5591L8.67257 20.3704L7.86182 21.3218L6.90982 20.5105Z" fill="white"/>
<path d="M6.09903 21.4617L6.90979 20.5103L7.86179 21.3215L7.05103 22.2729L6.09903 21.4617Z" fill="white"/>
<path d="M5.28824 22.4133L6.099 21.4619L7.051 22.2732L6.24023 23.2246L5.28824 22.4133Z" fill="#21201E"/>
<path d="M22.4555 4.1963L23.2662 3.2449L24.2182 4.05617L23.4075 5.00757L22.4555 4.1963Z" fill="#21201E"/>
<path d="M21.6447 5.14796L22.4554 4.19656L23.4074 5.00783L22.5967 5.95923L21.6447 5.14796Z" fill="#F9C62C"/>
<path d="M20.834 6.09938L21.6448 5.14798L22.5968 5.95924L21.786 6.91064L20.834 6.09938Z" fill="#21201E"/>
<path d="M20.0232 7.05055L20.834 6.09915L21.786 6.91042L20.9752 7.86182L20.0232 7.05055Z" fill="#00E3B5"/>
<path d="M19.2124 8.00221L20.0232 7.05081L20.9752 7.86208L20.1644 8.81348L19.2124 8.00221Z" fill="#00E3B5"/>
<path d="M18.4016 8.95338L19.2124 8.00198L20.1644 8.81325L19.3536 9.76465L18.4016 8.95338Z" fill="#00E3B5"/>
<path d="M17.5909 9.9048L18.4016 8.9534L19.3536 9.76466L18.5428 10.7161L17.5909 9.9048Z" fill="#00E3B5"/>
<path d="M16.7801 10.8565L17.5908 9.90506L18.5428 10.7163L17.7321 11.6677L16.7801 10.8565Z" fill="#00E3B5"/>
<path d="M15.9695 11.8076L16.7803 10.8562L17.7323 11.6675L16.9215 12.6189L15.9695 11.8076Z" fill="#00E3B5"/>
<path d="M15.1587 12.759L15.9695 11.8076L16.9215 12.6189L16.1107 13.5703L15.1587 12.759Z" fill="#00E3B5"/>
<path d="M14.3479 13.7105L15.1587 12.7591L16.1107 13.5703L15.2999 14.5217L14.3479 13.7105Z" fill="#00E3B5"/>
<path d="M13.5371 14.6619L14.3479 13.7105L15.2999 14.5217L14.4891 15.4731L13.5371 14.6619Z" fill="#00E3B5"/>
<path d="M12.7263 15.6133L13.5371 14.6619L14.4891 15.4732L13.6783 16.4246L12.7263 15.6133Z" fill="#00E3B5"/>
<path d="M11.9156 16.5647L12.7263 15.6133L13.6783 16.4246L12.8676 17.376L11.9156 16.5647Z" fill="#00E3B5"/>
<path d="M11.1049 17.5161L11.9157 16.5647L12.8676 17.376L12.0569 18.3274L11.1049 17.5161Z" fill="#00E3B5"/>
<path d="M10.2941 18.4675L11.1049 17.5161L12.0569 18.3274L11.2461 19.2788L10.2941 18.4675Z" fill="#21201E"/>
<path d="M9.48331 19.4187L10.2941 18.4673L11.2461 19.2786L10.4353 20.23L9.48331 19.4187Z" fill="white"/>
<path d="M8.67252 20.3701L9.48328 19.4187L10.4353 20.23L9.62451 21.1814L8.67252 20.3701Z" fill="white"/>
<path d="M7.86173 21.3218L8.67248 20.3704L9.62448 21.1817L8.81372 22.1331L7.86173 21.3218Z" fill="white"/>
<path d="M7.05118 22.273L7.86194 21.3216L8.81393 22.1328L8.00317 23.0842L7.05118 22.273Z" fill="white"/>
<path d="M6.24039 23.2244L7.05115 22.273L8.00314 23.0842L7.19238 24.0356L6.24039 23.2244Z" fill="white"/>
<path d="M5.4296 24.176L6.24036 23.2246L7.19235 24.0359L6.38159 24.9873L5.4296 24.176Z" fill="#21201E"/>
<path d="M4.61881 25.1272L5.42957 24.1758L6.38156 24.9871L5.5708 25.9385L4.61881 25.1272Z" fill="#21201E"/>
<path d="M23.4075 5.00782L24.2183 4.05642L25.1703 4.86769L24.3595 5.81909L23.4075 5.00782Z" fill="#21201E"/>
<path d="M22.5967 5.95924L23.4075 5.00784L24.3595 5.81911L23.5487 6.77051L22.5967 5.95924Z" fill="#F9C62C"/>
<path d="M21.7859 6.91066L22.5967 5.95926L23.5487 6.77052L22.7379 7.72192L21.7859 6.91066Z" fill="#21201E"/>
<path d="M20.9751 7.86183L21.7859 6.91043L22.7379 7.7217L21.9271 8.6731L20.9751 7.86183Z" fill="#00E3B5"/>
<path d="M20.1645 8.81324L20.9752 7.86184L21.9272 8.67311L21.1165 9.62451L20.1645 8.81324Z" fill="#00E3B5"/>
<path d="M19.3537 9.7649L20.1644 8.8135L21.1164 9.62477L20.3057 10.5762L19.3537 9.7649Z" fill="#00E3B5"/>
<path d="M18.543 10.7161L19.3538 9.76468L20.3058 10.5759L19.495 11.5273L18.543 10.7161Z" fill="#00E3B5"/>
<path d="M17.7322 11.6675L18.543 10.7161L19.495 11.5274L18.6842 12.4788L17.7322 11.6675Z" fill="#00E3B5"/>
<path d="M16.9214 12.6189L17.7322 11.6675L18.6842 12.4788L17.8734 13.4302L16.9214 12.6189Z" fill="#00E3B5"/>
<path d="M16.1106 13.5703L16.9214 12.6189L17.8734 13.4302L17.0626 14.3816L16.1106 13.5703Z" fill="#00E3B5"/>
<path d="M15.2998 14.5217L16.1106 13.5703L17.0626 14.3816L16.2518 15.333L15.2998 14.5217Z" fill="#00E3B5"/>
<path d="M14.4892 15.4732L15.2999 14.5218L16.2519 15.333L15.4412 16.2844L14.4892 15.4732Z" fill="#00E3B5"/>
<path d="M13.6784 16.4243L14.4891 15.4729L15.4411 16.2842L14.6304 17.2356L13.6784 16.4243Z" fill="#00E3B5"/>
<path d="M12.8676 17.376L13.6783 16.4246L14.6303 17.2359L13.8196 18.1873L12.8676 17.376Z" fill="#00E3B5"/>
<path d="M12.0569 18.3272L12.8677 17.3758L13.8197 18.187L13.0089 19.1384L12.0569 18.3272Z" fill="#00E3B5"/>
<path d="M11.246 19.2788L12.0568 18.3274L13.0088 19.1387L12.198 20.0901L11.246 19.2788Z" fill="#21201E"/>
<path d="M10.4353 20.2302L11.2461 19.2788L12.1981 20.0901L11.3873 21.0415L10.4353 20.2302Z" fill="white"/>
<path d="M9.62454 21.1814L10.4353 20.23L11.3873 21.0413L10.5765 21.9927L9.62454 21.1814Z" fill="white"/>
<path d="M8.81387 22.1331L9.62463 21.1817L10.5766 21.9929L9.76587 22.9443L8.81387 22.1331Z" fill="white"/>
<path d="M8.00308 23.0842L8.81384 22.1328L9.76584 22.9441L8.95508 23.8955L8.00308 23.0842Z" fill="white"/>
<path d="M7.19229 24.0357L8.00305 23.0843L8.95505 23.8955L8.14429 24.8469L7.19229 24.0357Z" fill="white"/>
<path d="M6.3815 24.9873L7.19226 24.0359L8.14426 24.8472L7.3335 25.7986L6.3815 24.9873Z" fill="#21201E"/>
<path d="M4.76004 26.8899L5.5708 25.9385L6.52279 26.7498L5.71204 27.7012L4.76004 26.8899Z" fill="#21201E"/>
<path d="M24.3594 5.8191L25.1702 4.8677L26.1222 5.67897L25.3114 6.63037L24.3594 5.8191Z" fill="#21201E"/>
<path d="M23.5486 6.77028L24.3594 5.81887L25.3114 6.63014L24.5006 7.58154L23.5486 6.77028Z" fill="#F9C62C"/>
<path d="M22.7379 7.72169L23.5487 6.77029L24.5007 7.58156L23.6899 8.53296L22.7379 7.72169Z" fill="#21201E"/>
<path d="M21.9272 8.67335L22.7379 7.72195L23.6899 8.53322L22.8792 9.48462L21.9272 8.67335Z" fill="#00E3B5"/>
<path d="M21.1164 9.62452L21.9271 8.67312L22.8791 9.48439L22.0684 10.4358L21.1164 9.62452Z" fill="#00E3B5"/>
<path d="M20.3056 10.5759L21.1163 9.62454L22.0683 10.4358L21.2576 11.3872L20.3056 10.5759Z" fill="#00E3B5"/>
<path d="M19.4949 11.5274L20.3057 10.576L21.2577 11.3872L20.4469 12.3386L19.4949 11.5274Z" fill="#00E3B5"/>
<path d="M18.6842 12.4788L19.495 11.5274L20.447 12.3386L19.6362 13.29L18.6842 12.4788Z" fill="#00E3B5"/>
<path d="M17.8734 13.4302L18.6842 12.4788L19.6362 13.2901L18.8254 14.2415L17.8734 13.4302Z" fill="#00E3B5"/>
<path d="M17.0627 14.3816L17.8734 13.4302L18.8254 14.2415L18.0146 15.1929L17.0627 14.3816Z" fill="#00E3B5"/>
<path d="M16.2519 15.333L17.0626 14.3816L18.0146 15.1929L17.2039 16.1443L16.2519 15.333Z" fill="#00E3B5"/>
<path d="M15.4411 16.2844L16.2518 15.333L17.2038 16.1443L16.3931 17.0957L15.4411 16.2844Z" fill="#00E3B5"/>
<path d="M14.6303 17.2359L15.441 16.2845L16.393 17.0957L15.5823 18.0471L14.6303 17.2359Z" fill="#00E3B5"/>
<path d="M13.8196 18.1873L14.6304 17.2359L15.5824 18.0471L14.7716 18.9985L13.8196 18.1873Z" fill="#00E3B5"/>
<path d="M13.0088 19.1387L13.8196 18.1873L14.7716 18.9985L13.9608 19.95L13.0088 19.1387Z" fill="#00E3B5"/>
<path d="M12.198 20.0899L13.0088 19.1385L13.9608 19.9497L13.15 20.9011L12.198 20.0899Z" fill="#21201E"/>
<path d="M11.3872 21.0415L12.198 20.0901L13.15 20.9014L12.3392 21.8528L11.3872 21.0415Z" fill="white"/>
<path d="M10.5766 21.9929L11.3873 21.0415L12.3393 21.8528L11.5286 22.8042L10.5766 21.9929Z" fill="white"/>
<path d="M9.7659 22.9441L10.5767 21.9927L11.5287 22.804L10.7179 23.7554L9.7659 22.9441Z" fill="white"/>
<path d="M8.95511 23.8955L9.76587 22.9441L10.7179 23.7554L9.9071 24.7068L8.95511 23.8955Z" fill="white"/>
<path d="M8.14432 24.8469L8.95508 23.8955L9.90707 24.7068L9.09631 25.6582L8.14432 24.8469Z" fill="white"/>
<path d="M7.33353 25.7984L8.14429 24.847L9.09628 25.6582L8.28552 26.6096L7.33353 25.7984Z" fill="#21201E"/>
<path d="M6.52274 26.75L7.3335 25.7986L8.28549 26.6099L7.47473 27.5613L6.52274 26.75Z" fill="#21201E"/>
<path d="M25.3114 6.63039L26.1222 5.67899L27.0742 6.49025L26.2634 7.44165L25.3114 6.63039Z" fill="#21201E"/>
<path d="M24.5008 7.5818L25.3115 6.6304L26.2635 7.44166L25.4528 8.39307L24.5008 7.5818Z" fill="#F9C62C"/>
<path d="M23.69 8.53297L24.5007 7.58157L25.4527 8.39284L24.642 9.34424L23.69 8.53297Z" fill="#21201E"/>
<path d="M22.8793 9.48439L23.6901 8.53299L24.6421 9.34426L23.8313 10.2957L22.8793 9.48439Z" fill="#21201E"/>
<path d="M22.0685 10.4358L22.8793 9.48441L23.8313 10.2957L23.0205 11.2471L22.0685 10.4358Z" fill="#21201E"/>
<path d="M21.2577 11.3872L22.0685 10.4358L23.0205 11.2471L22.2097 12.1985L21.2577 11.3872Z" fill="#21201E"/>
<path d="M20.4469 12.3386L21.2577 11.3872L22.2097 12.1985L21.3989 13.1499L20.4469 12.3386Z" fill="#21201E"/>
<path d="M19.6361 13.2901L20.4469 12.3387L21.3989 13.1499L20.5881 14.1013L19.6361 13.2901Z" fill="#21201E"/>
<path d="M18.8254 14.2415L19.6361 13.2901L20.5881 14.1013L19.7773 15.0527L18.8254 14.2415Z" fill="#21201E"/>
<path d="M18.0147 15.1929L18.8254 14.2415L19.7774 15.0527L18.9667 16.0042L18.0147 15.1929Z" fill="#21201E"/>
<path d="M17.2039 16.1443L18.0147 15.1929L18.9666 16.0042L18.1559 16.9556L17.2039 16.1443Z" fill="#21201E"/>
<path d="M16.3931 17.0957L17.2039 16.1443L18.1559 16.9556L17.3451 17.907L16.3931 17.0957Z" fill="#21201E"/>
<path d="M15.5823 18.0471L16.3931 17.0957L17.3451 17.907L16.5343 18.8584L15.5823 18.0471Z" fill="#21201E"/>
<path d="M14.7716 18.9986L15.5824 18.0472L16.5344 18.8584L15.7236 19.8098L14.7716 18.9986Z" fill="#21201E"/>
<path d="M13.9609 19.95L14.7716 18.9986L15.7236 19.8098L14.9128 20.7612L13.9609 19.95Z" fill="#21201E"/>
<path d="M13.1501 20.9011L13.9608 19.9497L14.9128 20.761L14.1021 21.7124L13.1501 20.9011Z" fill="#21201E"/>
<path d="M12.3394 21.8526L13.1502 20.9012L14.1021 21.7124L13.2914 22.6638L12.3394 21.8526Z" fill="white"/>
<path d="M11.5286 22.8042L12.3394 21.8528L13.2914 22.6641L12.4806 23.6155L11.5286 22.8042Z" fill="white"/>
<path d="M10.7178 23.7554L11.5286 22.804L12.4806 23.6153L11.6698 24.5667L10.7178 23.7554Z" fill="white"/>
<path d="M9.90702 24.7068L10.7178 23.7554L11.6698 24.5667L10.859 25.5181L9.90702 24.7068Z" fill="white"/>
<path d="M9.09635 25.6582L9.90711 24.7068L10.8591 25.5181L10.0483 26.4695L9.09635 25.6582Z" fill="#21201E"/>
<path d="M26.2635 7.44142L27.0742 6.49002L28.0262 7.30128L27.2155 8.25269L26.2635 7.44142Z" fill="#21201E"/>
<path d="M25.4527 8.39308L26.2634 7.44168L27.2154 8.25294L26.4047 9.20435L25.4527 8.39308Z" fill="#F9C62C"/>
<path d="M24.6419 9.34425L25.4526 8.39285L26.4046 9.20412L25.5939 10.1555L24.6419 9.34425Z" fill="#21201E"/>
<path d="M23.8312 10.2957L24.642 9.34427L25.594 10.1555L24.7832 11.1069L23.8312 10.2957Z" fill="#80EED3"/>
<path d="M23.0204 11.2471L23.8312 10.2957L24.7832 11.1069L23.9724 12.0583L23.0204 11.2471Z" fill="#80EED3"/>
<path d="M22.2096 12.1985L23.0204 11.2471L23.9724 12.0584L23.1616 13.0098L22.2096 12.1985Z" fill="#80EED3"/>
<path d="M21.399 13.1499L22.2097 12.1985L23.1617 13.0098L22.351 13.9612L21.399 13.1499Z" fill="#80EED3"/>
<path d="M20.5882 14.1013L21.3989 13.1499L22.3509 13.9612L21.5402 14.9126L20.5882 14.1013Z" fill="#80EED3"/>
<path d="M19.7774 15.0527L20.5881 14.1013L21.5401 14.9126L20.7294 15.864L19.7774 15.0527Z" fill="#80EED3"/>
<path d="M18.9666 16.0042L19.7773 15.0528L20.7293 15.864L19.9186 16.8154L18.9666 16.0042Z" fill="#80EED3"/>
<path d="M18.1558 16.9556L18.9666 16.0042L19.9185 16.8154L19.1078 17.7668L18.1558 16.9556Z" fill="#80EED3"/>
<path d="M17.3451 17.907L18.1559 16.9556L19.1079 17.7669L18.2971 18.7183L17.3451 17.907Z" fill="#80EED3"/>
<path d="M16.5343 18.8584L17.3451 17.907L18.2971 18.7183L17.4863 19.6697L16.5343 18.8584Z" fill="#80EED3"/>
<path d="M15.7235 19.8096L16.5343 18.8582L17.4863 19.6695L16.6755 20.6208L15.7235 19.8096Z" fill="#80EED3"/>
<path d="M14.9129 20.7612L15.7236 19.8098L16.6756 20.6211L15.8649 21.5725L14.9129 20.7612Z" fill="#80EED3"/>
<path d="M14.1021 21.7127L14.9128 20.7613L15.8648 21.5725L15.0541 22.5239L14.1021 21.7127Z" fill="#21201E"/>
<path d="M13.2913 22.6638L14.1021 21.7124L15.054 22.5237L14.2433 23.4751L13.2913 22.6638Z" fill="white"/>
<path d="M12.4806 23.6152L13.2914 22.6638L14.2434 23.4751L13.4326 24.4265L12.4806 23.6152Z" fill="white"/>
<path d="M11.6698 24.5669L12.4806 23.6155L13.4326 24.4268L12.6218 25.3782L11.6698 24.5669Z" fill="#21201E"/>
<path d="M10.859 25.5181L11.6698 24.5667L12.6218 25.3779L11.811 26.3293L10.859 25.5181Z" fill="#21201E"/>
<path d="M27.2155 8.2527L28.0262 7.3013L28.9782 8.11256L28.1675 9.06396L27.2155 8.2527Z" fill="#21201E"/>
<path d="M26.4048 9.20436L27.2156 8.25296L28.1676 9.06422L27.3568 10.0156L26.4048 9.20436Z" fill="#21201E"/>
<path d="M25.5939 10.1555L26.4047 9.20413L27.3567 10.0154L26.5459 10.9668L25.5939 10.1555Z" fill="#21201E"/>
<path d="M24.7832 11.1069L25.594 10.1555L26.546 10.9668L25.7352 11.9182L24.7832 11.1069Z" fill="#80EED3"/>
<path d="M23.9724 12.0584L24.7832 11.107L25.7352 11.9182L24.9244 12.8696L23.9724 12.0584Z" fill="#80EED3"/>
<path d="M23.1617 13.0098L23.9724 12.0584L24.9244 12.8696L24.1136 13.821L23.1617 13.0098Z" fill="#80EED3"/>
<path d="M22.3509 13.9612L23.1616 13.0098L24.1136 13.8211L23.3029 14.7725L22.3509 13.9612Z" fill="#80EED3"/>
<path d="M21.5402 14.9126L22.351 13.9612L23.3029 14.7725L22.4922 15.7239L21.5402 14.9126Z" fill="#80EED3"/>
<path d="M20.7294 15.864L21.5402 14.9126L22.4922 15.7239L21.6814 16.6753L20.7294 15.864Z" fill="#80EED3"/>
<path d="M19.9186 16.8154L20.7294 15.864L21.6814 16.6753L20.8706 17.6267L19.9186 16.8154Z" fill="#80EED3"/>
<path d="M19.1079 17.7669L19.9187 16.8155L20.8707 17.6267L20.0599 18.5781L19.1079 17.7669Z" fill="#80EED3"/>
<path d="M18.2972 18.7183L19.1079 17.7669L20.0599 18.5781L19.2491 19.5295L18.2972 18.7183Z" fill="#80EED3"/>
<path d="M17.4864 19.6697L18.2971 18.7183L19.2491 19.5296L18.4384 20.481L17.4864 19.6697Z" fill="#80EED3"/>
<path d="M16.6756 20.6211L17.4863 19.6697L18.4383 20.481L17.6276 21.4324L16.6756 20.6211Z" fill="#80EED3"/>
<path d="M15.8649 21.5723L16.6757 20.6209L17.6277 21.4321L16.8169 22.3835L15.8649 21.5723Z" fill="#80EED3"/>
<path d="M15.0541 22.5237L15.8649 21.5723L16.8169 22.3836L16.0061 23.335L15.0541 22.5237Z" fill="#21201E"/>
<path d="M14.2433 23.4754L15.0541 22.524L16.0061 23.3352L15.1953 24.2866L14.2433 23.4754Z" fill="white"/>
<path d="M13.4325 24.4265L14.2433 23.4751L15.1953 24.2864L14.3845 25.2378L13.4325 24.4265Z" fill="#21201E"/>
<path d="M26.5459 10.9668L27.3567 10.0154L28.3087 10.8267L27.4979 11.7781L26.5459 10.9668Z" fill="#21201E"/>
<path d="M25.7351 11.9182L26.5459 10.9668L27.4979 11.7781L26.6871 12.7295L25.7351 11.9182Z" fill="#21201E"/>
<path d="M24.9245 12.8696L25.7352 11.9182L26.6872 12.7295L25.8765 13.6809L24.9245 12.8696Z" fill="#21201E"/>
<path d="M24.1137 13.8211L24.9244 12.8697L25.8764 13.6809L25.0657 14.6323L24.1137 13.8211Z" fill="#21201E"/>
<path d="M23.3029 14.7725L24.1136 13.8211L25.0656 14.6323L24.2549 15.5837L23.3029 14.7725Z" fill="#21201E"/>
<path d="M22.4921 15.7239L23.3029 14.7725L24.2549 15.5838L23.4441 16.5352L22.4921 15.7239Z" fill="#21201E"/>
<path d="M21.6813 16.6755L22.4921 15.7242L23.4441 16.5354L22.6333 17.4868L21.6813 16.6755Z" fill="#21201E"/>
<path d="M20.8706 17.6265L21.6814 16.6751L22.6334 17.4863L21.8226 18.4377L20.8706 17.6265Z" fill="#21201E"/>
<path d="M20.0598 18.5781L20.8706 17.6267L21.8226 18.438L21.0118 19.3894L20.0598 18.5781Z" fill="#21201E"/>
<path d="M19.2491 19.5296L20.0598 18.5782L21.0118 19.3894L20.201 20.3408L19.2491 19.5296Z" fill="#21201E"/>
<path d="M18.4384 20.4807L19.2491 19.5293L20.2011 20.3406L19.3904 21.292L18.4384 20.4807Z" fill="#21201E"/>
<path d="M17.6276 21.4324L18.4384 20.481L19.3903 21.2923L18.5796 22.2437L17.6276 21.4324Z" fill="#21201E"/>
<path d="M16.8168 22.3838L17.6276 21.4324L18.5796 22.2437L17.7688 23.1951L16.8168 22.3838Z" fill="#21201E"/>
<path d="M16.006 23.335L16.8168 22.3836L17.7688 23.1948L16.958 24.1462L16.006 23.335Z" fill="#21201E"/>
<path d="M15.1953 24.2864L16.0061 23.335L16.9581 24.1463L16.1473 25.0977L15.1953 24.2864Z" fill="#21201E"/>
</svg>
