<svg width="62" height="16" viewBox="0 0 62 16" fill="none" xmlns="http://www.w3.org/2000/svg">
<path d="M0.21607 0.599999H2.59207V12.436H3.78007V13.624H7.32207V12.436H8.48807V0.599999H10.8641V13.624H9.67607V14.812H8.51007V16H2.57007V14.812H1.40407V13.624H0.21607V0.599999ZM13.242 6.518H12.054V2.976H13.242V1.788H14.408V0.599999H21.536V1.788H22.702V2.976H23.89V5.352H21.514V4.164H20.348V2.976H15.596V4.164H14.408V5.33H15.596V6.518H21.536V7.706H22.702V8.894H23.89V13.624H22.702V14.812H21.536V16H14.408V14.812H13.242V13.624H12.054V11.27H14.408V12.436H15.596V13.624H20.348V12.436H21.536V10.082H20.37V8.894H14.408V7.706H13.242V6.518ZM25.0735 0.599999H35.7435V2.976H27.4495V6.518H34.5555V8.894H27.4495V13.624H35.7435V16H25.0735V0.599999ZM39.3089 2.976V7.706H45.2049V6.518H46.3929V4.164H45.2049V2.976H39.3089ZM36.9329 0.599999H46.3929V1.788H47.5809V2.976H48.7689V7.706H47.5809V8.894H46.3929V10.082H47.5809V11.27H48.7689V16H46.3929V12.436H45.2049V11.27H44.0169V10.082H39.3089V16H36.9329V0.599999ZM51.1404 6.518H49.9524V2.976H51.1404V1.788H52.3064V0.599999H59.4344V1.788H60.6004V2.976H61.7884V5.352H59.4124V4.164H58.2464V2.976H53.4944V4.164H52.3064V5.33H53.4944V6.518H59.4344V7.706H60.6004V8.894H61.7884V13.624H60.6004V14.812H59.4344V16H52.3064V14.812H51.1404V13.624H49.9524V11.27H52.3064V12.436H53.4944V13.624H58.2464V12.436H59.4344V10.082H58.2684V8.894H52.3064V7.706H51.1404V6.518Z" fill="white"/>
</svg>
